<svg width="103" height="75" viewBox="0 0 103 75" fill="none" xmlns="http://www.w3.org/2000/svg">
<path d="M53.633 7.93062C53.8171 7.75879 53.9198 7.50952 53.9155 7.23846C53.9113 6.92989 53.908 7.09809 53.877 6.63584C53.7796 6.19053 53.1245 5.48868 51.5145 5.96909C51.2768 6.04048 48.8779 7.07631 48.6606 7.22757C47.0527 8.35174 50.1582 9.82078 50.5082 9.83046C51.386 9.85466 52.7166 8.78494 53.633 7.93062Z" fill="#ED9F14"/>
<path d="M52.5774 6.11432C51.3935 6.45435 49.6904 7.28205 49.5523 7.37402L50.5757 9.80749C51.4534 9.7845 52.737 8.76682 53.6329 7.93065C53.8192 7.75761 53.9198 7.49745 53.9155 7.22518C53.9102 6.90814 54.0376 5.69442 52.5774 6.11432Z" fill="#A9EFFF"/>
<path d="M8.1206 21.1024L4.8578 23.9763L3.92542 27.3766V29.7242L5.14789 32.6707L16.3472 25.3618L8.1206 21.1024Z" fill="#26231F"/>
<path d="M54.378 51.2915L51.1152 54.1654L50.1828 57.567V59.9133L51.4063 62.8611L62.6046 55.5522L54.378 51.2915Z" fill="#26231F"/>
<path d="M61.1252 55.0863C59.664 54.1328 58.343 54.0529 57.3946 54.6954L54.1211 56.8312L61.5823 71.2601L64.8547 69.1244C65.7807 68.4976 66.3523 67.1835 66.3523 65.3212C66.3523 61.553 64.0123 56.9704 61.1252 55.0863Z" fill="#26231F"/>
<path d="M63.0799 67.457C63.0799 71.2265 60.7388 72.7533 57.8517 70.8692C54.9646 68.9856 52.6245 64.4027 52.6245 60.6345C52.6245 56.8651 54.9646 55.338 57.8517 57.2221C60.7388 59.1062 63.0799 63.6888 63.0799 67.457Z" fill="#3F3932"/>
<path d="M57.842 68.9151C55.8531 67.6699 54.2131 64.5322 54.1778 61.9051C54.1435 59.278 55.7278 58.1563 57.7168 59.4003C59.7057 60.6442 61.3468 63.7832 61.381 66.4103C61.4164 69.0375 59.831 70.1592 57.842 68.9151Z" fill="#D8D8D8"/>
<path d="M57.8335 68.2472C56.124 67.1774 54.713 64.479 54.6831 62.2209C54.6531 59.9617 56.0158 58.9973 57.7254 60.0682C59.436 61.1379 60.8458 63.8352 60.8758 66.0944C60.9058 68.3535 59.5441 69.3169 57.8335 68.2472Z" fill="#A8A8A8"/>
<path d="M57.9866 66.3534C57.0199 65.7483 56.2224 64.2236 56.2053 62.947C56.1881 61.6703 56.9589 61.1258 57.9245 61.7296C58.8911 62.3347 59.6886 63.8594 59.7057 65.136C59.7229 66.4127 58.9521 66.9584 57.9866 66.3534Z" fill="#D8D8D8"/>
<path d="M59.7036 65.2885C59.6597 66.455 58.9136 66.933 57.9866 66.3534C57.0199 65.7483 56.2224 64.2236 56.2053 62.947C56.1882 61.6703 56.9589 61.1258 57.9245 61.7296C58.4372 62.0503 58.9018 62.6299 59.2283 63.2931C59.3728 63.5871 59.4906 63.8981 59.5719 64.2103C59.6544 64.5225 59.7015 64.8359 59.7058 65.136L59.7036 65.2885ZM59.8834 62.8913C59.4585 62.0273 58.8536 61.2722 58.1857 60.8559C56.9268 60.0682 55.9238 60.7773 55.9462 62.44C55.9676 64.1038 57.006 66.0896 58.2649 66.8773C59.4734 67.6324 60.4454 67.0104 60.5033 65.4906L60.5054 65.2921C60.4947 64.5104 60.2603 63.6585 59.8834 62.8913Z" fill="#BEBEBE"/>
<path d="M15.3003 25.1791C13.8391 24.2256 12.5181 24.1457 11.5697 24.7871L8.29727 26.9241L15.7574 41.3531L19.0299 39.2173C19.9569 38.5905 20.5275 37.2751 20.5275 35.414C20.5275 31.6458 18.1874 27.0632 15.3003 25.1791Z" fill="#26231F"/>
<path d="M17.255 37.5498C17.255 41.3192 14.9138 42.8463 12.0268 40.9622C9.13969 39.0781 6.79965 34.4955 6.79965 30.7273C6.79965 26.9579 9.13969 25.4308 12.0268 27.3149C14.9138 29.199 17.255 33.7816 17.255 37.5498Z" fill="#3F3932"/>
<path d="M12.0171 39.0079C10.0282 37.7628 8.3882 34.625 8.35287 31.9979C8.31862 29.3696 9.90293 28.2491 11.8919 29.4931C13.8808 30.737 15.5219 33.876 15.5561 36.5031C15.5904 39.1301 14.0061 40.2519 12.0171 39.0079Z" fill="#D8D8D8"/>
<path d="M12.0086 38.34C10.299 37.2703 8.88812 34.5718 8.85815 32.3138C8.82818 30.0545 10.1909 29.0901 11.9004 30.1598C13.6111 31.2295 15.0209 33.928 15.0508 36.1872C15.0808 38.4464 13.7192 39.4097 12.0086 38.34Z" fill="#A8A8A8"/>
<path d="M12.1606 36.4462C11.195 35.8412 10.3975 34.3165 10.3804 33.0398C10.3632 31.7632 11.134 31.2187 12.1006 31.8225C13.0662 32.4275 13.8637 33.9522 13.8808 35.2289C13.898 36.5055 13.1272 37.05 12.1606 36.4462Z" fill="#D8D8D8"/>
<path d="M13.8787 35.3813C13.8348 36.5479 13.0887 37.0258 12.1616 36.4462C11.195 35.8412 10.3975 34.3164 10.3804 33.0398C10.3633 31.7632 11.134 31.2186 12.1006 31.8225C12.6123 32.1431 13.0769 32.7228 13.4034 33.3859C13.5479 33.6799 13.6657 33.9909 13.747 34.3031C13.8295 34.6153 13.8766 34.9288 13.8808 35.2289L13.8787 35.3813ZM14.0585 32.9842C13.6335 32.1202 13.0287 31.3651 12.3608 30.9476C11.1019 30.161 10.0988 30.8701 10.1213 32.5328C10.1427 34.1954 11.1822 36.1824 12.4411 36.9702C13.6485 37.7252 14.6205 37.1033 14.6783 35.5834L14.6805 35.385C14.6698 34.6032 14.4353 33.7501 14.0585 32.9842Z" fill="#BEBEBE"/>
<path d="M102.123 42.9298C102.121 42.1941 101.828 41.4971 101.324 41.0324L95.7134 36.4365C95.7134 36.4365 79.8243 22.6936 79.5149 22.4915L60.2999 9.95024C59.6983 9.55817 59.0282 9.31616 58.3366 9.24113L42.8201 5.66534L29.2679 0.545486C27.4952 -0.124893 25.5779 -0.187828 23.786 0.414787C14.4043 3.5731 5.93256 9.3101 1.75021 14.6683C1.31667 15.2238 1.12613 15.9692 1.19357 16.7061C1.24923 17.3184 1.34023 17.9271 1.2289 18.4196C0.92703 19.7471 0 20.3158 0 21.204C0 23.0106 0 23.8831 0 26.0056C0 26.5477 0.311493 27.4081 0.786784 28.3302C1.60463 29.9142 2.82497 31.1847 4.23692 32.0875L5.1479 32.6707C5.17573 26.7147 6.88528 23.0106 11.97 26.3287C16.7294 29.435 18.7376 35.518 18.789 41.4825L51.4139 62.8574C51.4973 57.0829 53.2315 53.3268 58.2274 56.588C62.9044 59.6398 64.92 65.7955 65.0389 71.6594L66.2742 72.411C67.0556 72.8851 67.8949 73.2241 68.7641 73.4179L72.5044 74.2442C79.365 75.51 101.68 60.9056 102.157 55.822L102.123 42.9298Z" fill="#DB9200"/>
<path d="M0.087738 20.7297C0.0888085 20.7272 0.0888106 20.726 0.0898811 20.7236C0.317892 20.1053 0.91843 19.5535 1.18819 18.5806C0.91843 19.5571 0.314679 20.1089 0.087738 20.7297Z" fill="#F8E0A0"/>
<path d="M2.10456 22.0728C1.8166 22.0728 1.52864 22.0244 1.25032 21.9216C0.380022 21.6021 -0.0749419 21.1931 0.0877703 20.7297C0.314711 20.1089 0.918462 19.5571 1.18822 18.5805C1.18822 18.5793 1.18822 18.5793 1.18822 18.5793C1.18929 18.5757 1.19037 18.5721 1.19144 18.5684C1.19144 18.5672 1.19144 18.5672 1.19144 18.5672C1.19465 18.5551 1.19787 18.5442 1.20108 18.5333C1.20108 18.5321 1.20108 18.5309 1.20108 18.5309C1.20215 18.5273 1.20322 18.5249 1.2043 18.5213C1.2043 18.52 1.2043 18.5188 1.20537 18.5164C1.20537 18.514 1.20641 18.5104 1.20748 18.5079C1.20748 18.5067 1.20855 18.5055 1.20855 18.5031C1.20963 18.5007 1.20963 18.4971 1.2107 18.4946C1.2107 18.4934 1.2107 18.4922 1.21177 18.4922C1.21284 18.4862 1.21391 18.4801 1.21606 18.4753C1.21606 18.4728 1.21713 18.4704 1.21713 18.468C1.2182 18.4656 1.2182 18.4632 1.21927 18.462C1.21927 18.4595 1.22034 18.4571 1.22034 18.4547C1.22141 18.4523 1.22141 18.4499 1.22248 18.4474C1.22248 18.445 1.22356 18.4414 1.22463 18.439C1.22463 18.4378 1.22463 18.4353 1.2257 18.4341C1.22677 18.4293 1.22784 18.4244 1.22891 18.4196C1.26745 18.2502 1.28137 18.0675 1.28137 17.8751C1.28137 17.5084 1.22998 17.1079 1.19358 16.7061C1.12828 15.9982 1.3017 15.2831 1.69991 14.7349C1.71597 14.7131 1.73202 14.6913 1.74915 14.6696C1.83907 14.5558 1.93007 14.4409 2.0232 14.3259C1.60464 14.8583 1.7513 15.6921 2.31972 16.0067C5.89832 17.9767 12.4753 20.2819 18.1231 21.4533C16.0143 21.0745 12.3137 20.4707 8.91172 20.2299C8.71582 20.2154 8.51993 20.2093 8.32403 20.2093C6.67657 20.2093 5.0548 20.6982 3.61286 21.6166C3.14935 21.9119 2.62695 22.0728 2.10456 22.0728Z" fill="#E39F07"/>
<path d="M78.0912 64.8831C76.4908 64.8831 74.9664 63.8437 74.2963 62.1241C73.2697 59.4874 72.4465 55.9346 69.522 53.5156C74.6667 50.8643 85.349 47.4918 89.8963 43.72C92.3317 41.7004 94.9158 39.838 97.3469 37.7736L101.324 41.0324C101.34 41.0469 101.356 41.0614 101.371 41.076C101.846 41.5406 102.121 42.2171 102.123 42.9298L102.14 49.8176C102.14 49.8176 91.2965 60.4627 79.3286 64.6701C78.9197 64.8141 78.5033 64.8831 78.0912 64.8831Z" fill="#E6A50A"/>
<path d="M19.8573 21.7824C31.9344 8.7438 42.8201 5.66535 42.8201 5.66535L29.2678 0.545504C27.4941 -0.124882 25.5779 -0.187815 23.7859 0.414804C14.612 3.50293 6.3083 9.0572 2.03389 14.3126C1.60248 14.8438 1.74592 15.6897 2.3197 16.0067C6.27189 18.1824 13.8808 20.7672 19.8573 21.7824Z" fill="#FFC712"/>
<mask id="mask0_1_1780" style="mask-type:luminance" maskUnits="userSpaceOnUse" x="64" y="69" width="2" height="3">
<path d="M65.0378 71.6146C65.0196 70.7846 64.9629 69.9484 64.8654 69.1174C64.8665 69.1174 64.8665 69.1174 64.8676 69.116C64.9639 69.9484 65.0196 70.7846 65.0378 71.6146Z" fill="white"/>
</mask>
<g mask="url(#mask0_1_1780)">
<path d="M65.0378 71.6146C65.0196 70.7846 64.9629 69.9484 64.8654 69.1174C64.8665 69.1174 64.8665 69.1174 64.8676 69.116C64.9639 69.9484 65.0196 70.7846 65.0378 71.6146Z" fill="url(#paint0_linear_1_1780)"/>
</g>
<mask id="mask1_1_1780" style="mask-type:luminance" maskUnits="userSpaceOnUse" x="64" y="66" width="1" height="4">
<path d="M64.8655 69.1174C64.7563 68.1744 64.5946 67.2379 64.3784 66.3195C64.3805 66.3219 64.3816 66.3231 64.3827 66.3255C64.5978 67.2416 64.7584 68.1767 64.8676 69.116C64.8665 69.1174 64.8665 69.1174 64.8655 69.1174Z" fill="white"/>
</mask>
<g mask="url(#mask1_1_1780)">
<path d="M64.8655 69.1174C64.7563 68.1744 64.5946 67.2379 64.3784 66.3195C64.3805 66.3219 64.3816 66.3231 64.3827 66.3255C64.5978 67.2416 64.7584 68.1767 64.8676 69.116C64.8665 69.1174 64.8665 69.1174 64.8655 69.1174Z" fill="url(#paint1_linear_1_1780)"/>
</g>
<mask id="mask2_1_1780" style="mask-type:luminance" maskUnits="userSpaceOnUse" x="64" y="66" width="13" height="9">
<path d="M73.411 74.3208C73.0899 74.3208 72.7912 74.2961 72.5172 74.2465C72.5129 74.2465 72.5086 74.2455 72.5043 74.2442L68.7652 73.418C67.7814 73.1768 67.2141 72.9037 66.2742 72.411L65.0388 71.6595C65.0388 71.6448 65.0378 71.6316 65.0378 71.6184C65.0378 71.6175 65.0378 71.616 65.0378 71.6146C65.0196 70.7846 64.9639 69.9484 64.8676 69.116C64.7584 68.1767 64.5978 67.2416 64.3827 66.3255C67.7964 70.5416 71.7111 72.9967 76.0562 73.9407C75.0714 74.185 74.1775 74.3208 73.411 74.3208Z" fill="white"/>
</mask>
<g mask="url(#mask2_1_1780)">
<path d="M73.411 74.3208C73.0899 74.3208 72.7912 74.2961 72.5172 74.2465C72.5129 74.2465 72.5086 74.2455 72.5043 74.2442L68.7652 73.418C67.7814 73.1768 67.2141 72.9037 66.2742 72.411L65.0388 71.6595C65.0388 71.6448 65.0378 71.6316 65.0378 71.6184C65.0378 71.6175 65.0378 71.616 65.0378 71.6146C65.0196 70.7846 64.9639 69.9484 64.8676 69.116C64.7584 68.1767 64.5978 67.2416 64.3827 66.3255C67.7964 70.5416 71.7111 72.9967 76.0562 73.9407C75.0714 74.185 74.1775 74.3208 73.411 74.3208Z" fill="url(#paint2_linear_1_1780)"/>
</g>
<mask id="mask3_1_1780" style="mask-type:luminance" maskUnits="userSpaceOnUse" x="18" y="39" width="34" height="24">
<path d="M51.4128 62.8574V62.8562L51.4138 62.8574C51.4128 62.8574 51.4128 62.8574 51.4128 62.8574ZM18.789 41.4826C18.789 41.4693 18.789 41.4572 18.789 41.4438C18.789 41.4572 18.789 41.4705 18.789 41.4826ZM18.7879 41.3942C18.7815 40.8436 18.7579 40.2918 18.7162 39.7413H18.7172C18.7579 40.2918 18.7815 40.8436 18.7879 41.3942Z" fill="white"/>
</mask>
<g mask="url(#mask3_1_1780)">
<path d="M51.4128 62.8574V62.8562L51.4138 62.8574C51.4128 62.8574 51.4128 62.8574 51.4128 62.8574ZM18.789 41.4826C18.789 41.4693 18.789 41.4572 18.789 41.4438C18.789 41.4572 18.789 41.4705 18.789 41.4826ZM18.7879 41.3942C18.7815 40.8436 18.7579 40.2918 18.7162 39.7413H18.7172C18.7579 40.2918 18.7815 40.8436 18.7879 41.3942Z" fill="url(#paint3_linear_1_1780)"/>
</g>
<mask id="mask4_1_1780" style="mask-type:luminance" maskUnits="userSpaceOnUse" x="51" y="61" width="1" height="2">
<path d="M51.4128 62.8574L51.401 62.849L51.4128 62.8562M51.4342 62.1096C51.4481 61.7756 51.4685 61.4501 51.4941 61.1343H51.4952C51.4685 61.4501 51.4481 61.7756 51.4342 62.1096Z" fill="white"/>
</mask>
<g mask="url(#mask4_1_1780)">
<path d="M51.4128 62.8574L51.401 62.849L51.4128 62.8562M51.4342 62.1096C51.4481 61.7756 51.4685 61.4501 51.4941 61.1343H51.4952C51.4685 61.4501 51.4481 61.7756 51.4342 62.1096Z" fill="url(#paint4_linear_1_1780)"/>
</g>
<mask id="mask5_1_1780" style="mask-type:luminance" maskUnits="userSpaceOnUse" x="18" y="39" width="34" height="24">
<path d="M51.4139 62.8574L51.4128 62.8562L51.401 62.849L18.789 41.4826C18.789 41.4705 18.789 41.4572 18.789 41.4438C18.789 41.4402 18.789 41.4366 18.789 41.4329C18.7879 41.4233 18.7879 41.4124 18.7879 41.4027C18.7879 41.4003 18.7879 41.3979 18.7879 41.3942C18.7815 40.8436 18.7579 40.2918 18.7173 39.7413L51.4941 61.1343C51.4684 61.4501 51.4481 61.7756 51.4342 62.1096C51.4235 62.354 51.4171 62.6033 51.4128 62.8574" fill="white"/>
</mask>
<g mask="url(#mask5_1_1780)">
<path d="M51.4139 62.8574L51.4128 62.8562L51.401 62.849L18.789 41.4826C18.789 41.4705 18.789 41.4572 18.789 41.4438C18.789 41.4402 18.789 41.4366 18.789 41.4329C18.7879 41.4233 18.7879 41.4124 18.7879 41.4027C18.7879 41.4003 18.7879 41.3979 18.7879 41.3942C18.7815 40.8436 18.7579 40.2918 18.7173 39.7413L51.4941 61.1343C51.4684 61.4501 51.4481 61.7756 51.4342 62.1096C51.4235 62.354 51.4171 62.6033 51.4128 62.8574" fill="url(#paint5_linear_1_1780)"/>
</g>
<mask id="mask6_1_1780" style="mask-type:luminance" maskUnits="userSpaceOnUse" x="51" y="58" width="2" height="3">
<path d="M51.5177 60.8826H51.5166C51.6119 59.9 51.7714 59.0094 52.0069 58.2458L52.009 58.247C51.7735 59.0106 51.613 59.9 51.5177 60.8826Z" fill="white"/>
</mask>
<g mask="url(#mask6_1_1780)">
<path d="M51.5177 60.8826H51.5166C51.6119 59.9 51.7714 59.0094 52.0069 58.2458L52.009 58.247C51.7735 59.0106 51.613 59.9 51.5177 60.8826Z" fill="url(#paint6_linear_1_1780)"/>
</g>
<mask id="mask7_1_1780" style="mask-type:luminance" maskUnits="userSpaceOnUse" x="38" y="49" width="15" height="12">
<path d="M51.5166 60.8826L39.0659 52.7557C39.0574 52.4834 39.0242 51.3556 38.9931 49.7522L52.0069 58.2458C51.7714 59.0094 51.6119 59.9 51.5166 60.8826Z" fill="white"/>
</mask>
<g mask="url(#mask7_1_1780)">
<path d="M51.5166 60.8826L39.0659 52.7557C39.0574 52.4834 39.0242 51.3556 38.9931 49.7522L52.0069 58.2458C51.7714 59.0094 51.6119 59.9 51.5166 60.8826Z" fill="url(#paint7_linear_1_1780)"/>
</g>
<mask id="mask8_1_1780" style="mask-type:luminance" maskUnits="userSpaceOnUse" x="18" y="39" width="1" height="1">
<path d="M18.6958 39.4605H18.6937C18.6937 39.4532 18.6926 39.4448 18.6915 39.4375H18.6937C18.6937 39.4448 18.6947 39.4532 18.6958 39.4605Z" fill="white"/>
</mask>
<g mask="url(#mask8_1_1780)">
<path d="M18.6958 39.4605H18.6937C18.6937 39.4532 18.6926 39.4448 18.6915 39.4375H18.6937C18.6937 39.4448 18.6947 39.4532 18.6958 39.4605Z" fill="url(#paint8_linear_1_1780)"/>
</g>
<mask id="mask9_1_1780" style="mask-type:luminance" maskUnits="userSpaceOnUse" x="18" y="36" width="1" height="4">
<path d="M18.6916 39.4375C18.5963 38.3363 18.4304 37.2424 18.1906 36.1751L18.1959 36.1788C18.4347 37.2436 18.5995 38.3363 18.6937 39.4375H18.6916Z" fill="white"/>
</mask>
<g mask="url(#mask9_1_1780)">
<path d="M18.6916 39.4375C18.5963 38.3363 18.4304 37.2424 18.1906 36.1751L18.1959 36.1788C18.4347 37.2436 18.5995 38.3363 18.6937 39.4375H18.6916Z" fill="url(#paint9_linear_1_1780)"/>
</g>
<mask id="mask10_1_1780" style="mask-type:luminance" maskUnits="userSpaceOnUse" x="18" y="36" width="21" height="17">
<path d="M38.8582 52.6201L18.6958 39.4605C18.6948 39.4532 18.6937 39.4448 18.6937 39.4375C18.5995 38.3363 18.4346 37.2436 18.1959 36.1788L38.7844 49.6155C38.8133 51.0821 38.8443 52.1748 38.8582 52.6201Z" fill="white"/>
</mask>
<g mask="url(#mask10_1_1780)">
<path d="M38.8582 52.6201L18.6958 39.4605C18.6948 39.4532 18.6937 39.4448 18.6937 39.4375C18.5995 38.3363 18.4346 37.2436 18.1959 36.1788L38.7844 49.6155C38.8133 51.0821 38.8443 52.1748 38.8582 52.6201Z" fill="url(#paint10_linear_1_1780)"/>
</g>
<mask id="mask11_1_1780" style="mask-type:luminance" maskUnits="userSpaceOnUse" x="5" y="28" width="1" height="5">
<path d="M5.1511 32.3743C5.17465 30.6922 5.3395 29.2002 5.68313 28.0119L5.68634 28.0143C5.34272 29.2039 5.17572 30.691 5.1511 32.3743Z" fill="white"/>
</mask>
<g mask="url(#mask11_1_1780)">
<path d="M5.1511 32.3743C5.17465 30.6922 5.3395 29.2002 5.68313 28.0119L5.68634 28.0143C5.34272 29.2039 5.17572 30.691 5.1511 32.3743Z" fill="url(#paint11_linear_1_1780)"/>
</g>
<mask id="mask12_1_1780" style="mask-type:luminance" maskUnits="userSpaceOnUse" x="0" y="24" width="6" height="9">
<path d="M5.1479 32.6707L4.23692 32.0875C3.02301 31.3118 1.95146 30.2639 1.15502 28.98C1.02549 28.7694 0.902395 28.5528 0.786784 28.3302C0.700075 28.1608 0.617646 27.9938 0.542712 27.8304C0.207653 27.1032 0 26.4473 0 26.0056C0 25.334 0 24.7943 0 24.303L5.68314 28.0119C5.33952 29.2002 5.17467 30.6922 5.15112 32.3743C5.15112 32.3755 5.15112 32.3779 5.15112 32.3803C5.15112 32.3912 5.15112 32.4021 5.15112 32.4142C5.15004 32.4203 5.15004 32.4251 5.15004 32.4311C5.15004 32.436 5.15004 32.4396 5.15004 32.4445C5.15004 32.4844 5.14897 32.5255 5.14897 32.5667V32.5679C5.14897 32.5824 5.14897 32.5957 5.14897 32.609C5.14897 32.6127 5.14897 32.6163 5.14897 32.6199C5.14897 32.626 5.14897 32.632 5.14897 32.6381C5.14897 32.649 5.1479 32.6598 5.1479 32.6707Z" fill="white"/>
</mask>
<g mask="url(#mask12_1_1780)">
<path d="M5.1479 32.6707L4.23692 32.0875C3.02301 31.3118 1.95146 30.2639 1.15502 28.98C1.02549 28.7694 0.902395 28.5528 0.786784 28.3302C0.700075 28.1608 0.617646 27.9938 0.542712 27.8304C0.207653 27.1032 0 26.4473 0 26.0056C0 25.334 0 24.7943 0 24.303L5.68314 28.0119C5.33952 29.2002 5.17467 30.6922 5.15112 32.3743C5.15112 32.3755 5.15112 32.3779 5.15112 32.3803C5.15112 32.3912 5.15112 32.4021 5.15112 32.4142C5.15004 32.4203 5.15004 32.4251 5.15004 32.4311C5.15004 32.436 5.15004 32.4396 5.15004 32.4445C5.15004 32.4844 5.14897 32.5255 5.14897 32.5667V32.5679C5.14897 32.5824 5.14897 32.5957 5.14897 32.609C5.14897 32.6127 5.14897 32.6163 5.14897 32.6199C5.14897 32.626 5.14897 32.632 5.14897 32.6381C5.14897 32.649 5.1479 32.6598 5.1479 32.6707Z" fill="url(#paint12_linear_1_1780)"/>
</g>
<path d="M59.2305 9.41055C55.9548 10.1644 45.1334 16.5585 39.4245 21.5876C39.2072 21.7788 39.2265 22.143 39.477 22.2737C44.3937 24.8476 54.4133 31.042 58.9789 34.665C59.4157 35.0123 66.4744 32.246 71.7989 28.7864C76.509 25.7261 79.3222 22.3838 79.1499 22.2531C76.0765 19.9165 62.5232 10.2419 59.2305 9.41055Z" fill="#FFC712"/>
<path d="M101.324 41.0324L95.7133 36.4365C87.9931 43.144 79.3308 48.9052 69.522 53.5156L75.6569 58.4201C76.5454 59.0554 79.2858 58.0341 82.7199 56.3109C88.2971 53.5096 93.3176 50.1673 98.275 46.1438C101.258 43.7236 102.112 42.8173 102.112 42.8173C102.082 42.1239 101.802 41.4729 101.324 41.0324Z" fill="#FFC712"/>
<path d="M22.5795 21.6675L38.6559 21.3226C38.6559 21.3226 49.3061 12.2385 57.2008 9.60901L44.1357 6.71208C43.2343 6.51241 42.3009 6.58744 41.4381 6.94442C38.3626 8.21742 30.5524 12.0352 22.056 20.7672C21.7092 21.1242 22.1117 21.6675 22.5795 21.6675Z" fill="#282523"/>
<path d="M24.3415 21.371C24.0675 21.3311 24.1124 21.1411 24.3158 20.8676C24.789 20.2299 25.397 19.7447 25.9537 19.2086C28.2402 17.0099 30.6509 14.9745 33.1804 13.1461C35.072 11.7799 37.0299 10.5275 39.0541 9.42871C40.3269 8.73655 41.6265 8.10125 42.9539 7.5543C43.4667 7.34253 44.0062 7.23483 44.5585 7.23483C44.869 7.23483 45.1815 7.26994 45.4877 7.33649L55.9837 9.69131C48.6424 12.5858 39.5005 20.1827 38.5521 20.9802L38.2138 20.9898C37.0566 21.0225 35.8994 21.0552 34.7412 21.0878C33.0231 21.135 31.306 21.1834 29.5879 21.2319C28.1781 21.2718 26.7694 21.3105 25.3595 21.3504C25.0448 21.3589 24.7205 21.3952 24.4058 21.3771L24.3415 21.371Z" fill="#35312D"/>
<path d="M37.7803 23.0966C38.9075 23.047 40.1856 23.2381 41.5687 24.1348C46.9392 27.6198 53.3118 31.6349 57.5787 34.8731C58.039 35.2228 58.4982 35.7939 58.8933 36.5188C61.0942 40.5629 65.9638 52.2438 64.5486 51.3205C60.0933 48.4127 29.1351 27.9115 24.6776 24.9371C23.9914 24.4797 24.1906 24.0416 24.3993 23.9799C26.0693 23.4838 34.4564 23.243 37.7803 23.0966Z" fill="#282523"/>
<path d="M60.8769 35.2325L70.7788 51.7198C70.7788 51.7198 81.278 47.5354 94.4887 36.3542L79.6669 23.4342C79.6669 23.4342 75.0735 29.844 60.8769 35.2325Z" fill="#35312D"/>
<path d="M51.4994 61.1367L51.4952 61.1343C51.5015 61.0496 51.5089 60.9661 51.5174 60.8826L51.5184 60.8838L51.4994 61.1367Z" fill="#24201A"/>
<path d="M38.9931 49.7523L38.7843 49.6155C38.7051 45.5097 38.6516 38.4719 39.083 34.4907C39.1472 34.5343 39.2104 34.5766 39.2757 34.619C38.8603 38.6219 38.9171 45.7033 38.9931 49.7523Z" fill="#CF8600"/>
<path d="M18.7158 39.7413L18.7116 39.7376L18.6915 39.4581L18.6936 39.4605C18.7021 39.5537 18.7095 39.6469 18.7158 39.7413Z" fill="#F2EAD4"/>
<mask id="mask13_1_1780" style="mask-type:luminance" maskUnits="userSpaceOnUse" x="18" y="39" width="1" height="1">
<path d="M18.7169 39.7413H18.7158C18.7095 39.6469 18.7021 39.5537 18.6937 39.4605H18.6958C18.7032 39.5549 18.7105 39.6481 18.7169 39.7413Z" fill="white"/>
</mask>
<g mask="url(#mask13_1_1780)">
<path d="M18.7169 39.7413H18.7158C18.7095 39.6469 18.7021 39.5537 18.6937 39.4605H18.6958C18.7032 39.5549 18.7105 39.6481 18.7169 39.7413Z" fill="url(#paint13_linear_1_1780)"/>
</g>
<mask id="mask14_1_1780" style="mask-type:luminance" maskUnits="userSpaceOnUse" x="51" y="60" width="1" height="2">
<path d="M51.4952 61.1343H51.4941C51.5015 61.0496 51.5089 60.9649 51.5163 60.8826H51.5174C51.5089 60.9661 51.5015 61.0496 51.4952 61.1343Z" fill="white"/>
</mask>
<g mask="url(#mask14_1_1780)">
<path d="M51.4952 61.1343H51.4941C51.5015 61.0496 51.5089 60.9649 51.5163 60.8826H51.5174C51.5089 60.9661 51.5015 61.0496 51.4952 61.1343Z" fill="url(#paint14_linear_1_1780)"/>
</g>
<mask id="mask15_1_1780" style="mask-type:luminance" maskUnits="userSpaceOnUse" x="18" y="39" width="34" height="23">
<path d="M51.4941 61.1343L18.7172 39.7412C18.7108 39.6481 18.7033 39.5549 18.6958 39.4605L38.8583 52.6201C38.8443 52.1748 38.8133 51.0821 38.7844 49.6155L38.9931 49.7522C39.0242 51.3556 39.0574 52.4834 39.0659 52.7557L51.5166 60.8826C51.5091 60.9649 51.5016 61.0496 51.4941 61.1343Z" fill="white"/>
</mask>
<g mask="url(#mask15_1_1780)">
<path d="M51.4941 61.1343L18.7172 39.7412C18.7108 39.6481 18.7033 39.5549 18.6958 39.4605L38.8583 52.6201C38.8443 52.1748 38.8133 51.0821 38.7844 49.6155L38.9931 49.7522C39.0242 51.3556 39.0574 52.4834 39.0659 52.7557L51.5166 60.8826C51.5091 60.9649 51.5016 61.0496 51.4941 61.1343Z" fill="url(#paint15_linear_1_1780)"/>
</g>
<path d="M56.0736 55.557L55.9537 55.5207C55.9537 55.5171 55.9537 55.5122 55.9537 55.5086C55.9987 55.5207 56.0447 55.5328 56.0908 55.5461L56.0736 55.557Z" fill="#24201A"/>
<path d="M56.1604 55.5824L56.0736 55.557L56.0908 55.5461C56.1133 55.5522 56.1368 55.5594 56.1593 55.5667C56.1593 55.5715 56.1593 55.5776 56.1604 55.5824Z" fill="#24201A"/>
<path d="M56.1593 55.5667C56.1368 55.5594 56.1132 55.5522 56.0908 55.5461C56.0447 55.5328 55.9987 55.5207 55.9537 55.5086C55.897 54.0468 55.7814 49.9556 56.0704 45.7312C56.1346 45.7747 56.201 45.8183 56.2652 45.8606C55.9837 50.0959 56.1036 54.1787 56.1593 55.5667Z" fill="#CF8600"/>
<path d="M17.0184 32.5546C16.9531 32.4033 16.8857 32.2533 16.815 32.1044V32.0887C16.8846 32.2375 16.9531 32.3876 17.0184 32.5388V32.5546Z" fill="#24201A"/>
<path d="M17.0184 32.5388C16.9531 32.3876 16.8846 32.2375 16.815 32.0887V24.8669C16.815 24.6588 16.9595 24.4833 17.1426 24.4664L24.4111 23.9763C24.4068 23.9775 24.4036 23.9787 24.3993 23.9799C24.3137 24.0053 24.2302 24.0937 24.2077 24.2195L17.1586 24.6951L17.0184 24.8669V32.5388Z" fill="#CF8600"/>
<path d="M56.2652 45.8606C56.201 45.8183 56.1346 45.7747 56.0704 45.7312C56.1817 44.0915 56.3552 42.4313 56.6153 40.8969L56.7352 40.8049L56.8155 40.9392C56.55 42.5002 56.3766 44.1919 56.2652 45.8606ZM39.2757 34.619C39.2104 34.5766 39.1473 34.5343 39.083 34.4907C39.1901 33.5033 39.3271 32.7034 39.5005 32.1843L39.6322 32.1165L39.691 32.2654C39.5176 32.7845 39.3817 33.6025 39.2757 34.619ZM24.2077 24.2195C24.2302 24.0937 24.3137 24.0054 24.3993 23.9799C24.4036 23.9787 24.4068 23.9775 24.4111 23.9763L32.5167 23.4294L32.6259 23.5359L32.5328 23.6593L24.2077 24.2195Z" fill="#26221D"/>
<path d="M40.5549 30.0497C40.1192 31.4244 39.8002 32.8135 39.5744 34.2039C45.1162 37.8741 51.2201 41.9146 56.0811 45.1273C56.3958 42.1324 56.9096 39.1374 57.6761 36.1715L57.8335 35.5616C57.6922 35.408 57.5509 35.2676 57.4096 35.1599C53.8641 32.4699 48.8543 29.2389 44.201 26.2343L42.1789 24.9262L40.5549 30.0497ZM64.3837 50.6005C64.0979 48.7297 60.758 40.604 58.6331 36.7003C58.5079 36.4692 58.3719 36.2611 58.2338 36.0638L58.1642 36.3337C57.3849 39.3504 56.8679 42.3986 56.5607 45.4444C60.1949 47.8452 63.0724 49.7426 64.3837 50.6005ZM39.1055 33.8929C32.5702 29.5645 26.9085 25.8084 25.1743 24.6503C24.8971 24.4664 24.8478 24.3248 24.85 24.2982C26.1806 23.9194 32.0682 23.6665 35.7892 23.5225L37.792 23.4415C37.8937 23.4366 37.9976 23.4342 38.1025 23.4342C39.295 23.4342 40.3794 23.7609 41.4167 24.4337L41.7314 24.637L40.0764 29.8573C39.6536 31.1908 39.3356 32.5388 39.1055 33.8929Z" fill="#35312D"/>
<path d="M24.5406 23.9424C23.8406 24.0937 22.9488 24.6467 22.6716 24.9262L23.0794 27.615L25.9312 25.7721C26.0275 25.6946 25.3638 23.7646 24.5406 23.9424Z" fill="#282523"/>
<path d="M23.4883 27.6041C23.6735 27.4323 23.7763 27.183 23.772 26.9119C23.7645 26.3964 23.7228 25.507 23.5494 24.7858C23.4509 24.3792 23.2453 24.0852 22.8364 24.3042C20.9695 25.3062 19.1476 27.5956 19.5843 28.8699C20.1142 30.4139 22.207 28.7997 23.4883 27.6041Z" fill="#ED9F14"/>
<path d="M23.772 26.9119C23.7645 26.3964 23.7228 25.507 23.5494 24.7858C23.5194 24.6612 23.4744 24.5547 23.4209 24.4627C21.5326 25.4707 19.7106 27.7602 20.1474 29.0344C20.217 29.2353 20.3144 29.3781 20.4321 29.4809C21.3088 29.458 22.5923 28.4403 23.4883 27.6041C23.6735 27.4323 23.7763 27.183 23.772 26.9119Z" fill="#A9EFFF"/>
<path d="M101.875 43.7974C101.995 43.7176 102.153 43.7502 102.226 43.8846C102.697 44.7619 102.729 47.6903 102.025 48.5083C100.928 49.7813 99.2234 51.0507 98.7567 51.3556C98.5394 51.4972 98.2696 51.335 98.2525 51.0531C98.2011 50.2242 98.1122 48.7128 98.0641 47.6467C98.0459 47.228 98.2354 46.8372 98.5544 46.6242L101.875 43.7974Z" fill="#AA0F0F"/>
<path d="M83.2894 57.4713L83.4831 60.9842C83.4981 61.2468 83.39 61.7817 83.1952 61.9244C82.9383 62.1096 78.5429 64.5903 77.6801 63.7698C77.1706 63.2846 77.192 62.0358 77.1449 61.1185C77.1202 60.6272 77.4232 60.0186 77.8 59.7693L82.6974 57.1168C82.95 56.9486 83.2712 57.141 83.2894 57.4713Z" fill="#AA0F0F"/>
<path d="M3.00052 21.2173C3.35378 20.9789 3.73487 19.6297 3.72309 19.188C3.68991 17.9307 2.04566 17.6391 1.18179 16.4907C0.456004 17.2337 0.0395888 19.7725 0.271882 20.4562C0.44851 20.9729 1.98785 21.8974 3.00052 21.2173Z" fill="#F0FDFF"/>
<path d="M2.75107 17.8037C2.82922 18.4378 2.48132 19.9552 1.73734 21.4097C2.14733 21.5319 2.65899 21.446 3.00048 21.2173C3.35373 20.9789 3.75302 19.7313 3.75302 19.038C3.75302 18.468 3.29809 18.1207 2.75107 17.8037Z" fill="#CB5E12"/>
<path d="M54.2003 47.6878L51.3753 45.8437C51.2158 45.7396 51.0863 45.5097 51.0863 45.3282V44.8756C51.0863 44.6953 51.2158 44.6336 51.3753 44.7377L54.2003 46.5818C54.3608 46.6859 54.4904 46.917 54.4904 47.0973V47.5499C54.4904 47.7302 54.3608 47.7919 54.2003 47.6878Z" fill="#EEB211"/>
<path d="M37.3125 36.6665L34.4875 34.8223C34.328 34.7182 34.1985 34.4871 34.1985 34.3068V33.8542C34.1985 33.6739 34.328 33.611 34.4875 33.7163L37.3125 35.5592C37.472 35.6633 37.6015 35.8944 37.6015 36.0747V36.5273C37.6015 36.7088 37.472 36.7705 37.3125 36.6665Z" fill="#EEB211"/>
<path d="M21.3335 36.4099L20.3369 35.7601C20.1924 35.6657 20.0735 35.4552 20.0735 35.2906V35.1611C20.0735 34.9965 20.1924 34.9409 20.3369 35.0353L21.3335 35.6851C21.478 35.7807 21.5968 35.99 21.5968 36.1546V36.2841C21.5968 36.4486 21.478 36.5055 21.3335 36.4099Z" fill="#CB5E12"/>
<path d="M70.2157 68.3123L69.2201 67.6627C69.0745 67.5683 68.9568 67.3577 68.9568 67.1931V67.0649C68.9568 66.9003 69.0745 66.8434 69.2201 66.9378L70.2157 67.5876C70.3613 67.6832 70.479 67.8935 70.479 68.0586V68.1866C70.479 68.3512 70.3613 68.4078 70.2157 68.3123Z" fill="#CB5E12"/>
<path d="M94.159 54.8116L88.6932 58.3789C88.1429 58.7383 87.6966 58.5254 87.6966 57.9034V57.1374C87.6966 56.5154 88.1429 55.7204 88.6932 55.361L94.159 51.7937C94.7082 51.4355 95.1546 51.6485 95.1546 52.2692V53.0364C95.1546 53.6572 94.7082 54.4522 94.159 54.8116Z" fill="#DB9200"/>
<path d="M95.9756 58.3281C93.6334 60.3392 91.8896 61.4513 89.7497 62.7993C89.5313 62.9361 89.3932 63.1975 89.3932 63.4794V65.3962C89.3932 65.5559 89.5442 65.6648 89.6727 65.5958C92.0427 64.3289 94.1847 62.7352 96.0366 61.0133C96.1972 60.8644 96.2882 60.6454 96.2882 60.4106C96.2882 59.9109 96.2882 59.0178 96.2882 58.4878C96.2882 58.3099 96.1019 58.2204 95.9756 58.3281Z" fill="white"/>
<path d="M8.29727 15.8917C13.5019 20.7103 17.4338 21.6831 22.9692 22.6548C15.949 20.5795 13.0684 19.3743 8.29727 15.8917Z" fill="#EEB211"/>
<mask id="mask16_1_1780" style="mask-type:luminance" maskUnits="userSpaceOnUse" x="21" y="2" width="17" height="6">
<path d="M37.6347 7.18157C32.6152 4.26891 25.9248 3.16411 21.2971 2.39086C28.5078 2.67281 34.8654 4.91751 37.6347 7.18157Z" fill="white"/>
</mask>
<g mask="url(#mask16_1_1780)">
<path d="M37.6347 7.18157C32.6152 4.26891 25.9248 3.16411 21.2971 2.39086C28.5078 2.67281 34.8654 4.91751 37.6347 7.18157Z" fill="url(#paint16_linear_1_1780)"/>
</g>
<defs>
<linearGradient id="paint0_linear_1_1780" x1="38.0276" y1="49.1218" x2="34.3585" y2="54.7436" gradientUnits="userSpaceOnUse">
<stop stop-color="#FFF4D4"/>
<stop offset="1" stop-color="#DFD9CC"/>
</linearGradient>
<linearGradient id="paint1_linear_1_1780" x1="38.0272" y1="49.1218" x2="34.3581" y2="54.7436" gradientUnits="userSpaceOnUse">
<stop stop-color="#514626"/>
<stop offset="1" stop-color="#372E1F"/>
</linearGradient>
<linearGradient id="paint2_linear_1_1780" x1="38.0275" y1="49.1218" x2="34.3585" y2="54.7436" gradientUnits="userSpaceOnUse">
<stop stop-color="#E2A308"/>
<stop offset="1" stop-color="#DE9800"/>
</linearGradient>
<linearGradient id="paint3_linear_1_1780" x1="38.0275" y1="49.1218" x2="34.3585" y2="54.7436" gradientUnits="userSpaceOnUse">
<stop stop-color="#FFF4D4"/>
<stop offset="1" stop-color="#DFD9CC"/>
</linearGradient>
<linearGradient id="paint4_linear_1_1780" x1="38.0294" y1="49.1218" x2="34.3601" y2="54.7432" gradientUnits="userSpaceOnUse">
<stop stop-color="#514626"/>
<stop offset="1" stop-color="#372E1F"/>
</linearGradient>
<linearGradient id="paint5_linear_1_1780" x1="38.0276" y1="49.1218" x2="34.3585" y2="54.7436" gradientUnits="userSpaceOnUse">
<stop stop-color="#E2A308"/>
<stop offset="1" stop-color="#DE9800"/>
</linearGradient>
<linearGradient id="paint6_linear_1_1780" x1="38.028" y1="49.1218" x2="34.3589" y2="54.7435" gradientUnits="userSpaceOnUse">
<stop stop-color="#514626"/>
<stop offset="1" stop-color="#372E1F"/>
</linearGradient>
<linearGradient id="paint7_linear_1_1780" x1="38.0276" y1="49.1218" x2="34.3585" y2="54.7436" gradientUnits="userSpaceOnUse">
<stop stop-color="#E2A308"/>
<stop offset="1" stop-color="#DE9800"/>
</linearGradient>
<linearGradient id="paint8_linear_1_1780" x1="38.0464" y1="49.125" x2="34.3771" y2="54.7509" gradientUnits="userSpaceOnUse">
<stop stop-color="#FFF4D4"/>
<stop offset="1" stop-color="#DFD9CC"/>
</linearGradient>
<linearGradient id="paint9_linear_1_1780" x1="38.0274" y1="49.1218" x2="34.3583" y2="54.7435" gradientUnits="userSpaceOnUse">
<stop stop-color="#514626"/>
<stop offset="1" stop-color="#372E1F"/>
</linearGradient>
<linearGradient id="paint10_linear_1_1780" x1="38.0276" y1="49.1218" x2="34.3585" y2="54.7436" gradientUnits="userSpaceOnUse">
<stop stop-color="#E2A308"/>
<stop offset="1" stop-color="#DE9800"/>
</linearGradient>
<linearGradient id="paint11_linear_1_1780" x1="38.0277" y1="49.1218" x2="34.3587" y2="54.7436" gradientUnits="userSpaceOnUse">
<stop stop-color="#514626"/>
<stop offset="1" stop-color="#372E1F"/>
</linearGradient>
<linearGradient id="paint12_linear_1_1780" x1="38.0275" y1="49.1218" x2="34.3584" y2="54.7436" gradientUnits="userSpaceOnUse">
<stop stop-color="#E2A308"/>
<stop offset="1" stop-color="#DE9800"/>
</linearGradient>
<linearGradient id="paint13_linear_1_1780" x1="37.7494" y1="49.1216" x2="34.0594" y2="54.6944" gradientUnits="userSpaceOnUse">
<stop stop-color="#F2E0B1"/>
<stop offset="1" stop-color="#D4C7AA"/>
</linearGradient>
<linearGradient id="paint14_linear_1_1780" x1="38.2065" y1="49.122" x2="34.5181" y2="54.6986" gradientUnits="userSpaceOnUse">
<stop stop-color="#4D4020"/>
<stop offset="1" stop-color="#342A1A"/>
</linearGradient>
<linearGradient id="paint15_linear_1_1780" x1="38.0276" y1="49.1218" x2="34.3585" y2="54.7436" gradientUnits="userSpaceOnUse">
<stop stop-color="#D69607"/>
<stop offset="1" stop-color="#D28C00"/>
</linearGradient>
<linearGradient id="paint16_linear_1_1780" x1="22.4553" y1="7.02668" x2="36.7046" y2="3.46372" gradientUnits="userSpaceOnUse">
<stop stop-color="#FFDA15"/>
<stop offset="1" stop-color="#FFE232"/>
</linearGradient>
</defs>
</svg>
