<?xml version="1.0" encoding="utf-8"?>
<!-- Generator: Adobe Illustrator 15.0.0, SVG Export Plug-In . SVG Version: 6.00 Build 0)  -->
<!DOCTYPE svg PUBLIC "-//W3C//DTD SVG 1.1//EN" "http://www.w3.org/Graphics/SVG/1.1/DTD/svg11.dtd">
<svg version="1.1" id="Logo" xmlns="http://www.w3.org/2000/svg" xmlns:xlink="http://www.w3.org/1999/xlink" x="0px" y="0px"
	 width="841.89px" height="595.28px" viewBox="0 0 841.89 595.28" enable-background="new 0 0 841.89 595.28" xml:space="preserve">
<g id="Logo_Group_6_">
	<g id="Techmobile_Group_6_">
		<path id="E_27_" fill="#F15622" d="M678.895,458.295h-15.036v9.702h16.793v7.579h-26.01v-40.868h25.162v7.58h-15.945v8.489h15.036
			V458.295z"/>
		<path id="L_6_" fill="#F15622" d="M623.311,434.708h9.217v33.108h16.251v7.76h-25.468V434.708z"/>
		<path id="I_6_" fill="#F15622" d="M617.448,434.708v40.868h-9.217v-40.868H617.448z"/>
		<path id="B_6_" fill="#F15622" d="M572.051,435.254c2.425-0.426,7.276-0.849,11.945-0.849c5.639,0,9.095,0.547,12.128,2.305
			c2.851,1.515,4.85,4.305,4.85,8.063c0,3.577-2.123,6.914-6.731,8.671v0.12c4.668,1.214,8.125,4.791,8.125,10.007
			c0,3.757-1.697,6.668-4.244,8.729c-2.97,2.365-7.943,3.7-16.067,3.7c-4.549,0-7.944-0.302-10.005-0.605V435.254z M581.207,450.896
			h3.032c4.911,0,7.458-1.999,7.458-5.03c0-3.094-2.367-4.73-6.55-4.73c-2.06,0-3.213,0.121-3.94,0.243V450.896z M581.207,469.028
			c0.909,0.12,2,0.12,3.577,0.12c4.185,0,7.882-1.636,7.882-5.942c0-4.06-3.697-5.698-8.308-5.698h-3.151V469.028z"/>
		<path id="O_4_" fill="#F15622" d="M566.186,454.718c0,13.461-8.063,21.526-20.068,21.526c-12.067,0-19.221-9.158-19.221-20.858
			c0-12.248,7.884-21.404,19.887-21.404C559.335,433.981,566.186,443.38,566.186,454.718z M536.658,455.202
			c0,8.065,3.76,13.705,9.944,13.705c6.246,0,9.823-5.943,9.823-13.887c0-7.396-3.459-13.702-9.823-13.702
			C540.297,441.318,536.658,447.261,536.658,455.202z"/>
		<path id="M_6_" fill="#F15622" d="M511.392,459.932c-0.182-4.911-0.363-10.852-0.363-16.794h-0.121
			c-1.335,5.213-3.032,11.034-4.61,15.826l-4.97,15.945h-7.215l-4.366-15.763c-1.334-4.853-2.669-10.673-3.7-16.009h-0.119
			c-0.181,5.516-0.427,11.822-0.668,16.917l-0.786,15.521h-8.55l2.604-40.868h12.31l4.001,13.643
			c1.336,4.729,2.549,9.823,3.458,14.613h0.242c1.092-4.729,2.486-10.125,3.881-14.673l4.304-13.583h12.126l2.184,40.868h-8.974
			L511.392,459.932z"/>
		<path id="H_6_" fill="#F15622" d="M445.622,434.708v15.705h15.22v-15.705h9.217v40.868h-9.217v-17.099h-15.22v17.099h-9.216
			v-40.868H445.622z"/>
		<path id="C_6_" fill="#F15622" d="M429.998,474.484c-1.639,0.79-5.519,1.76-10.432,1.76c-14.128,0-21.401-8.853-21.401-20.495
			c0-13.946,9.942-21.646,22.313-21.646c4.791,0,8.429,0.908,10.065,1.818l-1.939,7.276c-1.82-0.788-4.426-1.517-7.761-1.517
			c-7.277,0-12.978,4.427-12.978,13.521c0,8.188,4.851,13.34,13.037,13.34c2.851,0,5.881-0.545,7.762-1.333L429.998,474.484z"/>
		<path id="E_26_" fill="#F15622" d="M390.543,458.295h-15.039v9.702H392.3v7.579h-26.012v-40.868h25.164v7.58h-15.948v8.489h15.039
			V458.295z"/>
		<path id="T_13_" fill="#F15622" d="M340.051,442.47h-11.034v-7.762h31.408v7.762h-11.156v33.106h-9.218V442.47z"/>
	</g>
	<g id="Eyeta_Group_5_">
		<path id="A_6_" fill="#FFFFFF" d="M644.166,386.989l-4.274,15.396h-13.973l18.247-59.981h17.797l18.688,59.981h-14.684
			l-4.627-15.396H644.166z M659.382,376.844l-3.737-12.726c-1.068-3.559-2.136-8.01-3.025-11.569h-0.177
			c-0.891,3.56-1.781,8.099-2.763,11.569l-3.558,12.726H659.382z"/>
		<path id="T_12_" fill="#FFFFFF" d="M565.467,353.795h-16.198v-11.391h46.1v11.391h-16.375v48.591h-13.526V353.795z"/>
		<path id="E_25_" fill="#FFFFFF" d="M516.136,377.021h-22.07v14.238h24.651v11.126h-38.179v-59.981h36.934v11.123h-23.406v12.46
			h22.07V377.021z"/>
		<path id="Y_6_" fill="#FFFFFF" d="M416.701,402.386v-24.563l-18.955-35.419h15.573l6.053,14.416
			c1.868,4.361,3.203,7.563,4.627,11.479h0.18c1.334-3.736,2.758-7.209,4.537-11.479l6.052-14.416h15.218l-19.756,34.975v25.007
			H416.701z"/>
		<path id="E_24_" fill="#FFFFFF" d="M364.612,377.021h-22.07v14.238h24.651v11.126h-38.178v-59.981h36.933v11.123h-23.406v12.46
			h22.07V377.021z"/>
	</g>
	<g id="Roads_Group_2_">
		<path id="Road_2_1_" fill="#FFFFFF" d="M307.221,290.937c-20.46,15.099-39.842,25.278-55.7,34.724
			c175.642-136.173,88.41-161.64,77.479-164.563l8.524-17.497c2.793,1.081,5.474,2.192,8.024,3.338
			c24.589,11.036,37.949,24.996,39.833,41.725C388.417,215.598,361.389,250.963,307.221,290.937z M341.114,136.232
			c3.133,1.322,6.133,2.675,8.98,4.062c7.572,3.689,14.128,7.603,19.639,11.731c13.804,10.339,21.414,22.264,22.618,35.442
			c1.492,16.327-6.844,34.686-24.777,54.565c-14.147,15.683-34.311,32.405-59.931,49.704c-19.88,13.424-40.041,25.138-56.123,33.923
			c67.007-29.094,278.818-132.419,97.971-206.624L341.114,136.232z"/>
		<path id="Location_Icon_7_" fill-rule="evenodd" clip-rule="evenodd" fill="#F15622" d="M340.392,247.241l0.018,0.014
			l-18.138,31.421l-0.106,0.073c-1.089,2.594-3.647,4.418-6.631,4.418c-2.986,0-5.547-1.824-6.636-4.418l-0.104-0.073
			l-18.146-31.421c-7.928-13.74-3.221-31.311,10.521-39.241c13.738-7.933,31.305-3.225,39.239,10.516
			C345.732,227.737,345.345,238.647,340.392,247.241 M315.534,222.118c-5.948,0-10.772,4.822-10.772,10.772
			s4.824,10.775,10.772,10.775c5.946,0,10.769-4.825,10.769-10.775S321.48,222.118,315.534,222.118"/>
		<path id="Road_1_1_" fill="#FFFFFF" d="M257.434,205.684c18.355-35.109,38.557-62.593,54.323-86.647
			c-153.096,310.593-13.533,286.739,3.771,283.374v30.324c-4.651,0.391-9.164,0.665-13.519,0.801
			c-41.972,1.321-70.212-9.118-84.267-31.263C195.113,366.616,208.838,298.637,257.434,205.684z M315.528,445.504
			c-5.291,0.285-10.417,0.439-15.352,0.439c-13.125,0-24.979-1.008-35.514-3.031c-26.389-5.062-45.185-16.573-55.865-34.209
			c-13.232-21.851-14.083-53.253-2.53-93.336c9.115-31.621,25.945-68.805,50.026-110.518c18.686-32.367,38.933-62.531,55.463-85.813
			c-74.003,86.478-300.173,375.74,3.771,356.271V445.504z"/>
	</g>
</g>
</svg>
