<svg width="90" height="86" viewBox="0 0 90 86" fill="none" xmlns="http://www.w3.org/2000/svg">
<path d="M16.3785 27.4788L16.2982 28.3149L16.036 27.744L36.976 42.7126L35.356 44.0508L32.1145 31.058L32.9185 31.9126L16.3785 27.4788ZM15.9114 25.7025L33.3706 29.5468C33.7666 29.6338 34.066 29.9656 34.1693 30.3769L37.4167 43.3938C37.5818 44.0546 37.2528 44.7187 36.6878 44.8992C36.373 44.9994 36.0472 44.9257 35.7967 44.7319L15.3921 28.8473C15.2319 28.723 15.1416 28.5254 15.1315 28.3221L15.0504 26.4635C15.0324 26.0485 15.316 25.6949 15.6834 25.6745L15.8403 25.6869L15.9114 25.7025Z" fill="#4F4D4C"/>
<path d="M65.5509 20.7132L78.6505 66.9671C78.7597 67.3519 78.5719 67.7636 78.2315 67.887C77.897 68.008 77.539 67.8034 77.4236 67.4318L63.2164 21.5977C62.9919 20.8716 63.3297 20.0779 63.9711 19.8237C64.613 19.5698 65.3155 19.9522 65.5405 20.6768L65.5509 20.7132Z" fill="#333333"/>
<path d="M16.194 4.81004C15.1549 4.76188 13.893 7.14235 14.6748 8.10655C15.3598 8.94985 17.686 9.17396 17.801 7.06334C17.809 6.24569 17.392 5.46616 16.6866 4.97837C16.4939 4.8455 16.3132 4.81621 16.194 4.81004Z" fill="#333333"/>
<path d="M16.2886 25.4094C15.7492 25.0573 15.262 25.027 14.9119 25.2643L13.8055 25.9865C13.4543 26.2228 13.2397 26.7078 13.2397 27.3989C13.2397 28.789 14.1033 30.4808 15.1692 31.1766C15.8319 31.6086 16.3659 31.3728 16.3504 31.3837L17.6651 30.59C18.0071 30.3589 18.2179 29.8734 18.2179 29.1862C18.2179 27.7959 17.354 26.1042 16.2886 25.4094Z" fill="#A0A0A0"/>
<path d="M23.406 17.3151H23.4056C21.0209 14.019 14.894 7.01617 8.04089 10.385C10.2567 9.46791 13.0333 10.0087 15.8591 11.8531C17.9415 13.2117 20.0503 15.2787 21.9805 17.9905C27.843 26.2285 29.8255 37.2899 26.4226 42.7112C26.1135 43.2014 25.7685 43.6211 25.4102 43.977C31.7298 38.4423 29.5022 26.3193 23.406 17.3151Z" fill="#383838"/>
<path d="M25.9505 25.3658C24.9514 22.81 23.6171 20.2897 21.9805 17.9905C21.7258 17.6322 21.4682 17.2862 21.2082 16.951C19.495 14.7465 17.6668 13.0329 15.8591 11.8531C12.6242 9.74114 9.45379 9.33697 7.11548 10.8743L6.66638 11.1682C9.0047 9.63248 12.1756 10.0366 15.41 12.1481C17.2176 13.3279 19.0459 15.0405 20.759 17.2461C21.0191 17.5816 21.2767 17.9277 21.5309 18.286C23.1675 20.5852 24.5019 23.1055 25.5013 25.6599C28.0814 32.2595 28.4263 39.098 25.9734 43.0066C25.4306 43.8669 24.7838 44.5339 24.0562 45.0117L24.5053 44.7164C25.2328 44.2384 25.8797 43.5728 26.4225 42.7111C28.8759 38.8039 28.5304 31.9647 25.9505 25.3658Z" fill="#4F4F4F"/>
<path d="M22.8766 42.359C20.8702 45.5416 17.2428 45.6882 13.5183 43.2581C11.6909 42.065 9.8406 40.2523 8.14624 37.8708C3.00211 30.643 1.26216 20.9344 4.24779 16.1872C6.25493 12.9989 9.88283 12.8514 13.6078 15.2811C15.4342 16.4742 17.2838 18.286 18.9781 20.6673C24.1222 27.8953 25.8622 37.6033 22.8766 42.359ZM21.5309 18.286C19.6012 15.5741 17.4924 13.507 15.41 12.1481C12.1756 10.0366 9.00471 9.63247 6.6664 11.1682C5.84932 11.7246 3.36297 13.4187 2.35648 17.5764C0.829374 23.8849 3.45622 33.1855 8.60286 39.6936C10.988 42.7088 17.2683 49.2641 24.0562 45.0117C24.7838 44.5339 25.4307 43.8669 25.9734 43.0066C29.3763 37.5854 27.3943 26.524 21.5309 18.286Z" fill="#383838"/>
<path d="M22.7692 40.9216C22.5095 41.3002 22.4225 41.3706 22.2489 41.5087C20.3949 42.7258 17.8805 42.4049 15.3172 40.733C13.6668 39.6557 11.9962 38.0183 10.4683 35.8695C5.81884 29.3375 4.24156 20.5605 6.94451 16.2647C7.37521 15.5798 7.88912 15.0514 8.52137 14.6387L8.83247 14.52C11.3138 13.8531 16.6725 16.4283 20.8172 24.2395C26.4807 34.9138 22.7692 40.9216 22.7692 40.9216ZM19.3252 20.1153C17.5226 17.5826 15.5543 15.6541 13.6107 14.3858C9.64704 11.7983 5.78622 11.9557 3.65113 15.3487C0.47357 20.4008 2.32516 30.7314 7.7988 38.4225C9.60231 40.9556 11.5709 42.8857 13.5153 44.1538C17.4787 46.7409 21.3386 46.5849 23.4733 43.199C26.6508 38.1369 24.7993 27.8068 19.3252 20.1153Z" fill="#1E1E1E"/>
<path d="M13.9771 41.2109L16.2062 39.7465C18.762 41.4141 21.0806 41.5663 22.7558 40.4663L20.5266 41.9308C18.8515 43.0307 16.5328 42.878 13.9771 41.2109Z" fill="#C2C2C2"/>
<path d="M7.49018 16.5555L9.71936 15.091C8.06389 16.1791 7.03606 18.4901 7.02812 21.7758C7.02185 24.2792 7.61061 26.9924 8.62129 29.577L6.39211 31.0424C5.38143 28.4563 4.79267 25.7435 4.79894 23.2397C4.8073 19.9546 5.8347 17.6431 7.49018 16.5555Z" fill="#C2C2C2"/>
<path d="M6.39209 31.0425L8.62127 29.577C9.51863 31.8739 10.7489 34.0677 12.1906 35.9238L9.96145 37.3882C8.51966 35.5329 7.28945 33.3377 6.39209 31.0425Z" fill="#E7E7E7"/>
<path d="M9.96149 37.3882L12.1906 35.9238C13.4037 37.4852 14.7661 38.8063 16.2062 39.7464L13.977 41.2109C12.5374 40.2706 11.1745 38.949 9.96149 37.3882Z" fill="#C2C2C2"/>
<path d="M17.5857 29.9557L17.1027 29.4957L17.3344 29.5151L18.5073 30.3225L17.5857 29.9557ZM17.1136 31.3341L16.8974 30.885L17.1742 31.1293L17.8462 32.199L17.1136 31.3341ZM16.7355 31.5216L16.6089 31.1379L16.9103 31.4962L17.4615 32.6471L16.7355 31.5216ZM16.667 26.9763L17.602 26.4791L16.8594 27.3469L16.4701 27.4051L16.667 26.9763ZM16.1423 26.9451L16.2409 26.4209L16.9948 25.5776L16.4479 26.7807L16.1423 26.9451ZM15.9883 26.288L15.911 26.375L15.9578 25.5451L16.2496 24.9145L15.9883 26.288ZM15.6036 31.8544L15.6329 31.3378L15.7554 31.663L15.8688 32.9846L15.6036 31.8544ZM15.4619 25.9562L15.4334 25.7025L15.7517 24.5103L15.6977 25.4519L15.4619 25.9562ZM18.1093 27.4618L17.2946 27.935L16.78 27.8697L16.9831 27.631L18.1093 27.4618ZM18.3296 28.3717L17.4193 28.5825L17.0044 28.4175L17.3109 28.2398L18.3296 28.3717ZM18.4927 29.3194L17.3909 29.2225L17.025 28.9697L17.3997 28.885L18.4927 29.3194ZM15.2842 32.8178L15.1186 31.3279L15.1721 31.1246L15.3373 31.8328L15.2842 32.8178ZM14.948 25.1371L15.0006 24.1558L15.1666 25.6452L15.1131 25.8461L14.948 25.1371ZM14.5336 32.4633L14.5871 31.5226L14.8233 31.0145L14.8518 31.2674L14.5336 32.4633ZM14.4169 23.9899L14.6816 25.1201L14.6524 25.6321L14.5298 25.3068L14.4169 23.9899ZM14.3274 31.4296L14.0356 32.0587L14.2969 30.6855L14.3743 30.5986L14.3274 31.4296ZM13.2904 31.3959L13.8373 30.1944L14.1431 30.0285L14.0444 30.5536L13.2904 31.3959ZM12.6837 30.4955L13.4259 29.6276L13.8152 29.5686L13.6182 29.9983L12.6837 30.4955ZM12.1761 29.5118L12.9906 29.0396L13.5054 29.1054L13.3021 29.3435L12.1761 29.5118ZM11.9557 28.6028L12.866 28.3925L13.2808 28.5556L12.9739 28.7347L11.9557 28.6028ZM11.7955 27.6556L12.8945 27.751L13.2573 28.0025L12.8857 28.0885L11.7955 27.6556ZM11.7792 26.6488L12.6995 27.0189L13.1825 27.4774L12.9504 27.4594L11.7792 26.6488ZM13.1717 25.6405L13.3874 26.0881L13.1148 25.8461L12.4424 24.7793L13.1717 25.6405ZM13.5497 25.4481L13.6772 25.8343L13.3749 25.4784L12.8204 24.3194L13.5497 25.4481ZM23.9015 33.706L20.7256 31.5179L23.7313 32.7148C23.7129 32.6032 23.6941 32.4921 23.674 32.382L19.656 30.7801L17.8909 29.5662L19.4586 29.7042L23.4887 31.3014C23.4641 31.1875 23.4374 31.074 23.411 30.9602L20.4635 29.7898L23.1572 30.0261L23.0739 29.7213L19.4966 29.4064L17.8994 28.7711L19.1621 28.4818L22.8712 28.9744L22.7863 28.6625L19.9972 28.2918L22.4669 27.7294L22.364 27.4509L19.1638 28.1817L17.7308 27.994L18.8297 27.354L22.1289 26.87L21.955 26.5915L19.5196 26.9523L21.4708 25.8211L21.324 25.5922L18.7988 27.06L17.2754 27.2864L18.2614 26.1221L20.7996 24.7731L20.6517 24.543L18.7444 25.5559L20.1954 23.8524L20.0365 23.6159L18.0854 25.9081L16.851 26.5642L17.6162 24.888L19.4862 22.7968L19.3244 22.568L17.9959 24.0528L18.9217 22.0117L18.7339 21.7512L17.3745 24.7429L16.3404 25.8986L16.7197 23.9015L18.1047 20.9118L17.9131 20.6721L16.9329 22.7812L17.446 20.085L17.2227 19.8042L16.4634 23.7942L16.0013 24.7873L16.0945 23.2227L17.0559 19.6142L16.8355 19.3689L16.1753 21.8543L16.3521 18.8291L16.0987 18.5459L15.8315 23.1452L15.3519 24.9509L15.0872 22.5789L15.3498 17.7981L15.0969 17.5514L14.9078 20.9646L14.4654 16.9596L14.1773 16.7185L14.8209 22.5392L14.7314 24.2115L14.2643 22.2211L13.7675 16.3772L13.4865 16.1428L13.8533 20.4613L12.7631 15.7945L12.488 15.7372L14.0051 22.2305L14.1903 24.4173L13.2963 22.0514L11.7646 15.5874L11.4823 15.5075L12.5946 20.1999L10.7347 15.2896C10.6381 15.2594 10.5406 15.2385 10.4449 15.205L13.0487 22.111L13.392 23.5606L12.7506 22.2243L10.4892 15.3865L10.3696 15.2716L10.2613 15.3345L10.245 15.4531L11.8959 20.4481L9.60103 15.6734L9.46932 15.5812L9.37899 15.6417L9.37565 15.7831L12.5102 22.3095L13.2302 24.4877L11.9536 22.5065L8.7781 15.862L8.64598 15.7699L8.55815 15.8304L8.55273 15.9721L10.8709 20.8257L8.03798 16.4298L7.91211 16.3678L7.83224 16.4236L7.89623 16.4245L7.82639 16.4283L7.83852 16.5927L11.7395 22.6446L12.733 24.7198L11.459 23.2171L7.68589 17.2111L7.55752 17.1519L7.47765 17.2077H7.54539L7.4743 17.2101L7.48267 17.3685L10.296 21.8434L7.06075 18.0341L6.99468 18.0302L6.91481 18.086L6.93781 18.2722L11.2741 23.3972L12.4332 25.2425L10.9822 23.9549L6.56147 18.6159L6.49457 18.6136L6.4147 18.6694L6.43854 18.8532L9.72983 22.8427L6.21398 19.7272L6.15085 19.7258L6.07098 19.7816L6.11112 19.9857L10.8304 24.179L12.0598 25.6646L10.8283 24.8672L6.19935 20.4565L6.13579 20.4556L6.05592 20.5109L6.09397 20.7132L9.62237 24.0796L6.00239 21.7271H5.94176L5.86189 21.7829L5.83556 21.8387L5.91668 22.0008L10.7096 25.1178L12.1388 26.4829L10.7079 25.9128L5.86858 22.5789L5.81047 22.5804L5.7306 22.6361L5.703 22.688L5.78412 22.8549L9.55839 25.4557L5.90873 23.9984L5.85228 24.0022L5.77241 24.058L5.82887 24.0542L5.74565 24.1326L5.84894 24.2891L10.6293 26.1903L12.3981 27.4098L10.8262 27.2709L6.05341 25.373L5.9978 25.3767L5.91793 25.4325L5.97354 25.4288L5.89368 25.5101L5.99697 25.6661L9.82182 27.1834L6.27545 26.8737L6.16129 26.9381L6.14122 27.0406L6.25915 27.1692L10.7919 27.5695L12.386 28.2025L11.1231 28.4927L6.57025 27.8876L6.45609 27.9529L6.43268 28.0535L6.55059 28.1864L10.2881 28.6818L7.02228 29.4258L6.92526 29.4887L6.9144 29.6206L7.04277 29.7246L11.1214 28.7915L12.5507 28.9782L11.4555 29.6158L7.21045 30.2436L7.11218 30.3068L7.09838 30.4364L7.22341 30.5414L10.7627 30.0199L7.79712 31.743L7.71725 31.7988L7.71474 31.9561L7.78081 32.026L7.8427 32.0275L11.4831 29.9122L13.0099 29.6872L12.0238 30.8476L8.43522 32.7597L8.34824 32.8187L8.34908 32.97L8.41892 33.0414L8.47703 33.0461L11.5408 31.4177L9.13103 34.243L9.20923 34.46L9.28199 34.4548L9.36186 34.3995L12.1998 31.0618L13.4343 30.4095L12.669 32.0865L9.68969 35.4058L9.76788 35.6284L9.84106 35.6175L9.92051 35.5632L12.2893 32.9204L10.5887 36.6655L10.674 36.8702L10.7577 36.8484L10.8375 36.7926L12.9107 32.2308L13.9448 31.075L13.5655 33.0731L11.5028 37.5201L11.5882 37.7243L11.668 37.7002L11.7479 37.6444L13.3519 34.1934L12.5097 38.6006L12.6021 38.786L12.6929 38.7458L12.7477 38.7325L13.8219 33.1808L14.2806 32.1859L14.1903 33.7518L12.7861 39.0241L12.8748 39.2118L12.9621 39.1788L13.0199 39.1585L14.11 35.1179L13.8316 39.8821L13.9239 40.0504L14.0147 39.9971L13.9891 40.0514L14.069 39.9961L14.0946 39.9413L14.4537 33.8279L14.9334 32.019L15.198 34.3956L14.8639 40.4687L14.9563 40.6371L15.0475 40.5841L15.022 40.6384L15.1019 40.5826L15.1274 40.5283L15.3774 36.0098L15.9373 41.0775L16.0402 41.225L16.0975 41.2171L16.1757 41.166L16.2 41.0884L15.4643 34.4344L15.5538 32.7629L16.0176 34.7511L16.5809 41.3436L16.6842 41.4949L16.7419 41.4916L16.8209 41.4396L16.8439 41.3631L16.4321 36.5119L17.6263 41.6258L17.74 41.7564L17.8604 41.6935L17.8814 41.5965L16.2803 34.744L16.0945 32.5574L16.989 34.9217L18.6231 41.8145L18.7411 41.9525L18.8556 41.8896L18.8782 41.7866L17.691 36.777L19.5933 41.806L19.7221 41.9137L19.8212 41.8494L19.8337 41.7252L17.2365 34.8641L16.8932 33.4129L17.5346 34.7501L19.7923 41.5809L19.9173 41.6996L20.0219 41.6354L20.0403 41.5219L18.3894 36.5265L20.6842 41.3016L20.8164 41.3934L20.9033 41.3329L20.9297 41.2776L17.7751 34.6656L17.0551 32.4874L18.3317 34.4679L21.5072 41.1125L21.6355 41.2023L21.7266 41.1405L21.7526 41.0852L19.4152 36.1502L22.2473 40.5453L22.31 40.6044L22.379 40.6021L22.4588 40.5463L22.479 40.4811L18.5462 34.329L17.5522 32.2548L18.8264 33.758L22.5994 39.7635L22.6617 39.8226L22.7311 39.8203L22.8109 39.765L22.8306 39.703L19.9884 35.1302L23.225 38.942L23.3048 38.9273L23.3851 38.8716L23.3814 38.7652L23.347 38.6975L19.0112 33.5774L17.852 31.7311L19.3031 33.0196L23.7242 38.3563L23.7836 38.0406L20.5567 34.1295L23.8454 37.047C23.853 36.9345 23.8568 36.8206 23.8638 36.7081L19.4544 32.7961L18.2259 31.3061L19.4569 32.106L23.884 36.3232C23.8902 36.2094 23.8969 36.0959 23.9019 35.982L20.6608 32.8892L23.9283 35.0154C23.93 34.9052 23.9296 34.795 23.9296 34.6835L19.5757 31.8554L18.1464 30.4917L19.5773 31.0604L23.9325 34.0605L23.9458 33.9646L23.9015 33.706Z" fill="#A0A0A0"/>
<path d="M13.977 41.2109C8.89852 37.8964 4.78221 29.8371 4.79894 23.2397C4.81566 16.6301 8.95873 13.9608 14.0372 17.2754C19.1157 20.5899 23.2316 28.6487 23.2153 35.2597C23.1985 41.8556 19.0559 44.5253 13.977 41.2109ZM14.041 15.8195C8.34656 12.1032 3.69668 15.0987 3.67828 22.509C3.65988 29.9051 8.27882 38.9623 13.9733 42.6799C19.6681 46.3957 24.3176 43.3876 24.3359 35.9905C24.3543 28.5811 19.7354 19.5371 14.041 15.8195Z" fill="#686868"/>
<path d="M14.8049 26.3775C14.2655 26.0253 13.778 25.9964 13.428 26.2337L12.3215 26.9545C11.9707 27.1918 11.7562 27.6759 11.7562 28.367C11.7562 29.7585 12.6197 31.4489 13.6851 32.1447C14.3484 32.5767 14.8823 32.3423 14.8668 32.3518L16.1816 31.5581C16.5232 31.3269 16.7344 30.8415 16.7344 30.1556C16.7344 28.764 15.8704 27.0733 14.8049 26.3775Z" fill="#686868"/>
<path d="M30.2896 24.0674C28.9448 20.6286 27.1054 17.3453 24.9481 14.5683C23.1278 12.2257 21.081 10.2422 18.9146 8.8279C15.0725 6.32037 11.596 6.09918 9.07955 7.75215L3.43823 11.4655L24.6479 27.7823L24.7048 27.9288L30.3465 24.214L30.2896 24.0674Z" fill="#FFAF24"/>
<path d="M13.2728 12.5429C10.0823 10.4602 7.14351 9.95437 4.79766 10.7891C3.93083 11.0978 3.1447 11.5894 2.45641 12.2535L2.45349 13.4069L24.7048 27.9288C22.233 21.53 18.044 15.6564 13.2728 12.5429Z" fill="#CD8005"/>
<path d="M24.7048 27.9288C22.233 21.53 18.044 15.6564 13.2728 12.5429C11.0499 11.0916 8.94911 10.4057 7.08623 10.4057C6.27501 10.4057 5.50937 10.5363 4.79767 10.7891C4.79767 10.7891 4.89677 10.7456 5.0816 10.6658C5.26685 10.5859 5.54408 10.4724 5.91039 10.3864C6.37161 10.2748 6.98211 10.1699 7.69632 10.1699C8.10528 10.1699 8.54768 10.2049 9.01602 10.2919C9.65705 10.4044 10.3441 10.5872 11.0503 10.852C11.7495 11.1134 12.4946 11.4608 13.198 11.8867C14.6377 12.7267 16.0473 13.8701 17.3273 15.1639C17.9608 15.8186 18.5733 16.4982 19.1357 17.2077C19.7115 17.9035 20.2222 18.6438 20.7072 19.3628C21.1957 20.0803 21.6192 20.8134 22.0039 21.5168C22.3903 22.2196 22.7386 22.8951 23.0359 23.5314C23.6535 24.7911 24.0278 25.9227 24.3176 26.6909C24.5726 27.4741 24.7048 27.9288 24.7048 27.9288Z" fill="#FFAF24"/>
<path d="M24.7048 27.9288C24.7048 27.9288 24.4869 27.5185 24.129 26.7891C23.7631 26.0678 23.2103 25.061 22.5204 23.8788C21.8391 22.6914 20.959 21.375 19.9692 20.0212C19.4766 19.3419 18.938 18.6694 18.3793 18.0014C17.8274 17.3259 17.229 16.6827 16.6131 16.0638C16.0063 15.4337 15.3645 14.8514 14.7188 14.2998C14.0577 13.7746 13.4091 13.2533 12.7422 12.8198C12.0652 12.383 11.4263 11.9969 10.7739 11.6773C10.1279 11.363 9.4948 11.1257 8.89851 10.9598C7.97063 10.7035 7.13432 10.5944 6.46695 10.5944C6.27711 10.5944 6.10106 10.6029 5.94049 10.6199C5.21374 10.679 4.79767 10.7891 4.79767 10.7891C5.50937 10.5363 6.27501 10.4057 7.08623 10.4057C8.94911 10.4057 11.0499 11.0916 13.2728 12.5429C18.044 15.6564 22.233 21.53 24.7048 27.9288Z" fill="#E69815"/>
<path d="M28.0738 41.892C28.4677 42.5287 51.8116 57.9185 53.324 57.9946L59.5931 52.82C60.3712 52.1777 60.909 51.2338 61.0913 50.164C61.8962 45.4462 62.8994 38.0159 62.973 34.0047C62.9998 32.5403 62.9438 31.0485 62.5244 29.6631C61.7812 27.2052 59.9535 25.3209 57.9079 24.1401C55.8623 22.959 53.5905 22.3917 51.3467 21.8349C49.5782 21.3968 47.8095 20.9576 46.0411 20.5195C44.4345 20.1215 42.8284 19.7233 41.216 19.3556C38.1041 18.6461 34.9726 18.0534 31.8331 17.5221C30.2478 17.2545 28.6605 16.9969 27.0715 16.7586C26.2574 16.6363 23.6426 17.9433 22.2326 19.0781C21.7259 19.4875 21.689 20.2991 22.1155 20.8111C28.734 28.765 27.628 41.172 28.0738 41.892Z" fill="#4F4D4C"/>
<path d="M56.4101 55.4473C56.9391 51.7433 57.0323 48.2232 57.0323 45.2647C57.0323 44.3906 53.6511 37.4133 52.3152 34.6906C52.512 34.7284 52.7074 34.7625 52.9027 34.7937C53.6937 34.9208 54.4377 34.986 55.1351 34.986C57.4233 34.986 59.2101 34.2894 60.5118 32.8249C60.799 34.2638 61.0124 35.6615 61.2566 36.6707C61.686 38.4433 62.0125 40.2188 62.2831 42.0045C61.9269 44.894 61.4857 47.854 61.0914 50.164C60.9091 51.2338 60.3713 52.1777 59.5931 52.8201L56.4101 55.4473Z" fill="#3E3D3D"/>
<path d="M29.1966 40.8984C29.527 31.3317 25.7703 24.9145 25.7703 24.9145L25.8907 24.3047L39.929 33.4664L33.9439 38.5666L29.1966 40.8984Z" fill="#343333"/>
<path d="M76.9214 64.9804C76.3824 64.6292 75.8948 64.599 75.5447 64.8363L74.4384 65.5591C74.0871 65.7949 73.8726 66.2799 73.8726 66.971C73.8726 68.3611 74.7365 70.0528 75.802 70.7478C76.4651 71.1807 76.9991 70.9449 76.9833 70.9557L78.2983 70.1621C78.64 69.931 78.8507 69.4455 78.8507 68.7582C78.8507 67.368 77.9868 65.6762 76.9214 64.9804Z" fill="#A0A0A0"/>
<path d="M84.0388 56.8876V56.8862C81.6541 53.591 75.5269 46.5881 68.6737 49.956C70.8895 49.04 73.6661 49.5798 76.4919 51.4252C78.5743 52.7841 80.6835 54.8508 82.6133 57.5626C88.4762 65.8006 90.4587 76.8624 87.0558 82.2832C86.7463 82.7734 86.4017 83.1921 86.043 83.5476C92.3626 78.0143 90.1355 65.8918 84.0388 56.8876Z" fill="#383838"/>
<path d="M86.5833 64.9369C85.5843 62.3826 84.25 59.8617 82.6133 57.5626C82.3586 57.2043 82.1014 56.8582 81.8414 56.5231C80.1278 54.317 78.3 52.605 76.4919 51.4252C73.2575 49.3132 70.0866 48.9091 67.7483 50.4448L67.2992 50.7403C69.6375 49.2044 72.8084 49.6086 76.0428 51.7192C77.8509 52.8991 79.6787 54.6125 81.3919 56.8185C81.6523 57.1537 81.9096 57.4997 82.1641 57.8565C83.8008 60.1571 85.1351 62.6765 86.1341 65.232C88.7142 71.8321 89.0595 78.6699 86.6066 82.5786C86.0635 83.439 85.4166 84.1045 84.689 84.5837L85.1381 84.2883C85.8657 83.8105 86.5126 83.1435 87.0558 82.2832C89.5087 78.375 89.1632 71.5366 86.5833 64.9369Z" fill="#4F4F4F"/>
<path d="M83.5094 81.9311C81.5032 85.1137 77.8756 85.2602 74.1511 82.8291C72.3243 81.6371 70.4734 79.8243 68.7791 77.4429C63.635 70.215 61.895 60.5065 64.8806 55.7597C66.8877 52.571 70.5161 52.4221 74.2406 54.8531C76.0671 56.0453 77.9171 57.858 79.611 60.2395C84.7552 67.4659 86.4954 77.1759 83.5094 81.9311ZM82.1642 57.8566C80.234 55.1448 78.1253 53.0782 76.0429 51.7193C72.8084 49.6086 69.6376 49.2045 67.2992 50.7403C66.4821 51.2966 63.9958 52.9907 62.9893 57.1476C61.4622 63.4571 64.0895 72.7576 69.2361 79.2656C71.6213 82.2808 77.9011 88.8347 84.689 84.5838C85.4166 84.1046 86.0635 83.439 86.6066 82.5787C90.0096 77.1565 88.0272 66.096 82.1642 57.8566Z" fill="#383838"/>
<path d="M83.4019 80.4936C83.1422 80.8723 83.0553 80.9413 82.8818 81.0807C81.0276 82.2979 78.5133 81.9773 75.95 80.3035C74.2996 79.2268 72.629 77.5894 71.1011 75.4416C66.4516 68.9094 64.8744 60.1326 67.5777 55.8373C68.0084 55.1524 68.5219 54.622 69.1541 54.2107L69.4653 54.0921C71.9466 53.4251 77.3057 55.9994 81.45 63.8101C87.1135 74.4857 83.4019 80.4936 83.4019 80.4936ZM79.9584 59.6873C78.1553 57.1537 76.187 55.2261 74.2435 53.9564C70.2803 51.3709 66.4194 51.5278 64.2839 54.9212C61.1067 59.9719 62.9579 70.3034 68.432 77.9936C70.2351 80.5276 72.2041 82.4576 74.1482 83.7259C78.1114 86.3129 81.9715 86.1555 84.1065 82.7696C87.2837 77.709 85.4321 67.3789 79.9584 59.6873Z" fill="#1E1E1E"/>
<path d="M68.123 56.1275L70.3523 54.6631C68.6968 55.7498 67.6693 58.0623 67.661 61.3479C67.6547 63.8503 68.2434 66.5644 69.2542 69.1491L67.025 70.6135C66.0143 68.0284 65.4255 65.3142 65.4318 62.8118C65.4402 59.5266 66.468 57.2152 68.123 56.1275Z" fill="#C2C2C2"/>
<path d="M67.025 70.6135L69.2541 69.1492C70.1515 71.4459 71.3821 73.6397 72.8235 75.4959L70.5943 76.9602C69.153 75.1041 67.9222 72.9099 67.025 70.6135Z" fill="#E7E7E7"/>
<path d="M70.5942 76.9602L72.8235 75.4959C74.0366 77.0571 75.3993 78.3783 76.839 79.3176L74.6098 80.7815C73.1701 79.8427 71.8073 78.5211 70.5942 76.9602Z" fill="#C2C2C2"/>
<path d="M78.2185 69.5278L77.7355 69.0683L77.9676 69.0872L79.1401 69.8945L78.2185 69.5278ZM77.7469 70.906L77.5302 70.457L77.807 70.7019L78.4791 71.7716L77.7469 70.906ZM77.3689 71.0923L77.2417 70.7099L77.5436 71.0682L78.0948 72.2178L77.3689 71.0923ZM77.3003 66.5488L78.2348 66.0511L77.4922 66.9189L77.1029 66.977L77.3003 66.5488ZM76.7755 66.5172L76.8738 65.9935L77.6277 65.1497L77.0807 66.3526L76.7755 66.5172ZM76.6212 65.8601L76.5439 65.9471L76.5907 65.117L76.8826 64.4864L76.6212 65.8601ZM76.2364 71.4265L76.2658 70.9098L76.3882 71.2341L76.5016 72.5567L76.2364 71.4265ZM76.0947 65.5273L76.0663 65.2744L76.3849 64.0824L76.331 65.024L76.0947 65.5273ZM78.7421 67.0338L77.9275 67.5069L77.4128 67.4404L77.616 67.2036L78.7421 67.0338ZM78.9624 67.9438L78.0521 68.1546L77.6373 67.9901L77.9443 67.8119L78.9624 67.9438ZM79.1255 68.8915L78.0241 68.7946L77.6578 68.5417L78.0325 68.4571L79.1255 68.8915ZM75.9174 72.3898L75.7514 70.8999L75.8054 70.6967L75.9701 71.4047L75.9174 72.3898ZM75.5812 64.7091L75.634 63.7278L75.7995 65.2177L75.7464 65.4172L75.5812 64.7091ZM75.1664 72.034L75.2203 71.0937L75.4562 70.5866L75.4846 70.8394L75.1664 72.034ZM75.0497 63.5624L75.3144 64.6926L75.2856 65.203L75.1626 64.8789L75.0497 63.5624ZM74.9606 71.0015L74.6684 71.6311L74.9297 70.2576L75.0071 70.1706L74.9606 71.0015ZM73.9237 70.968L74.4701 69.7664L74.7759 69.6005L74.6772 70.1242L73.9237 70.968ZM73.3165 70.0676L74.0592 69.2002L74.448 69.1405L74.2511 69.5688L73.3165 70.0676ZM72.8093 69.0839L73.6234 68.6106L74.1386 68.6773L73.9349 68.9141L72.8093 69.0839ZM72.5885 68.1739L73.4988 67.9646L73.914 68.1276L73.6071 68.3068L72.5885 68.1739ZM72.4283 67.2276L73.5273 67.3231L73.8902 67.5746L73.5185 67.6606L72.4283 67.2276ZM72.4125 66.2207L73.3324 66.5899L73.8153 67.0494L73.5837 67.0305L72.4125 66.2207ZM73.8045 65.2116L74.0202 65.6607L73.7476 65.4187L73.0752 64.3513L73.8045 65.2116ZM74.1825 65.0202L74.31 65.4063L74.0077 65.0505L73.4536 63.89L74.1825 65.0202ZM84.5343 73.278L81.3584 71.09L84.3641 72.2867C84.3457 72.1757 84.327 72.0642 84.3073 71.9531L80.2888 70.3521L78.5238 69.1382L80.0914 69.2762L84.122 70.8735C84.0969 70.7595 84.0702 70.6461 84.0438 70.5321L81.0963 69.3622L83.79 69.5982L83.7072 69.2932L80.13 68.9785L78.5322 68.3432L79.795 68.0539L83.504 68.5454L83.4191 68.233L80.6304 67.8639L83.0997 67.3013L82.9968 67.0229L79.7966 67.7537L78.3637 67.5666L79.4625 66.9261L82.7622 66.4411L82.5882 66.1641L80.1524 66.5242L82.1036 65.3931L81.9568 65.1643L79.4316 66.6311L77.9083 66.8584L78.8943 65.6942L81.4324 64.3451L81.2845 64.114L79.3772 65.1279L80.8287 63.4243L80.6697 63.188L78.7182 65.48L77.4839 66.1361L78.2495 64.4601L80.1195 62.3688L79.9576 62.1406L78.6292 63.6252L79.5549 61.5837L79.3672 61.3238L78.0073 64.3148L76.9732 65.4706L77.3525 63.474L78.7379 60.4837L78.5464 60.2441L77.5657 62.3533L78.0788 59.657L77.856 59.3763L77.0962 63.3648L76.6341 64.3599L76.7278 62.7952L77.6887 59.1868L77.4688 58.9409L76.8081 61.4263L76.985 58.4011L76.732 58.118L76.4643 62.7177L75.9848 64.5229L75.72 62.15L75.983 57.3702L75.7297 57.1235L75.5406 60.5372L75.0987 56.5316L74.8106 56.291L75.4537 62.1113L75.3642 63.7836L74.8972 61.7932L74.4008 55.9498L74.1198 55.7148L74.4861 60.0338L73.3959 55.3664L73.1212 55.3093L74.6383 61.8026L74.8235 63.9892L73.9291 61.6234L72.3974 55.158L72.1155 55.0781L73.2274 59.7723L71.3675 54.8616C71.2713 54.8313 71.1738 54.8097 71.0777 54.777L73.6815 61.6829L74.0248 63.1327L73.3834 61.7964L71.122 54.9585L71.0024 54.8422L70.8941 54.9051L70.8783 55.0237L72.5287 60.02L70.2338 55.2454L70.1022 55.1533L70.0118 55.2138L70.0085 55.3555L73.1434 61.8815L73.8634 64.0596L72.5864 62.0786L69.411 55.4341L69.2788 55.3418L69.191 55.4014L69.1855 55.5442L71.5042 60.3977L68.6708 56.0004L68.545 55.9399L68.4651 55.9955L68.529 55.9965L68.4592 56.0004L68.4713 56.1648L72.3723 62.2167L73.3658 64.2917L72.0918 62.7891L68.3188 56.7831L68.1903 56.724L68.1105 56.7798H68.1786L68.1071 56.7821L68.1155 56.9405L70.9288 61.4155L67.694 57.606L67.6276 57.6028L67.5476 57.6581L67.571 57.8448L71.9069 62.9691L73.066 64.8145L71.6154 63.527L67.1948 58.187L67.1274 58.1855L67.0476 58.2413L67.0718 58.4243L70.363 62.4151L66.8472 59.2992L66.7837 59.2978L66.7038 59.3535L66.744 59.5578L71.4636 63.7509L72.6926 65.2372L71.4611 64.4392L66.8322 60.0286L66.7686 60.0276L66.6888 60.0834L66.7268 60.2838L70.2551 63.6517L66.6352 61.2992H66.5751L66.4951 61.355L66.4683 61.4107L66.5499 61.5728L71.3424 64.6897L72.7716 66.0548L71.3407 65.4848L66.5014 62.1515H66.4433L66.3634 62.2068L66.3358 62.2601L66.4174 62.427L70.1912 65.0263L66.542 63.5704L66.4851 63.5742L66.4053 63.6299L66.4621 63.6262L66.3785 63.7051L66.4817 63.8611L71.2626 65.7609L73.0309 66.9819L71.4594 66.8414L66.6863 64.9454L66.6306 64.9488L66.5508 65.0046L66.6063 65.0007L66.5265 65.082L66.6298 65.238L70.4551 66.7553L66.9083 66.4443L66.7941 66.5101L66.7745 66.6127L66.8919 66.7412L71.4247 67.1416L73.0188 67.7745L71.756 68.0648L67.2035 67.4597L67.0889 67.524L67.0659 67.6256L67.1834 67.7589L70.9209 68.2538L67.6551 68.9979L67.5581 69.0607L67.5473 69.1926L67.6756 69.2957L71.7542 68.3639L73.184 68.5501L72.0883 69.1864L67.8433 69.816L67.745 69.8789L67.7316 70.0084L67.8562 70.1133L71.3955 69.592L68.43 71.3149L68.3501 71.3707L68.3476 71.5267L68.4136 71.5971L68.4755 71.5995L72.116 69.4842L73.6427 69.2592L72.6571 70.4197L69.0681 72.3316L68.9811 72.3908L68.9819 72.5421L69.0517 72.6135L69.1098 72.6187L72.1737 70.9898L69.7639 73.815L69.842 74.0319L69.9148 74.0267L69.9951 73.9714L72.8327 70.6338L74.0671 69.9815L73.3018 71.6576L70.3229 74.9783L70.4012 75.1995L70.4738 75.1901L70.5537 75.1343L72.9221 72.4925L71.2216 76.2375L71.3069 76.4422L71.3905 76.4205L71.4704 76.3647L73.5435 71.8027L74.5776 70.6471L74.1988 72.6437L72.1357 77.0921L72.221 77.2964L72.3013 77.2723L72.3811 77.217L73.9847 73.7653L73.1425 78.1712L73.2349 78.358L73.3261 78.3178L73.3809 78.3046L74.4547 72.7529L74.9134 71.7578L74.8235 73.3225L73.4189 78.5962L73.5076 78.7839L73.595 78.7512L73.6532 78.7304L74.7432 74.69L74.4644 79.4542L74.5567 79.621L74.6475 79.569L74.6219 79.6233L74.7018 79.568L74.7278 79.5132L75.0865 73.4L75.5662 71.5909L75.8308 73.9677L75.4972 80.0412L75.5895 80.209L75.6803 80.1561L75.6548 80.2105L75.7347 80.1547L75.7602 80.1004L76.0102 75.5819L76.5702 80.6496L76.6731 80.7962L76.7303 80.789L76.8085 80.737L76.8328 80.6605L76.0977 74.0064L76.1868 72.3355L76.6505 74.3222L77.2137 80.9157L77.317 81.067L77.3751 81.0623L77.4538 81.0117L77.4767 80.9351L77.0653 76.0839L78.2591 81.1965L78.3728 81.3284L78.4932 81.2655L78.5142 81.1691L76.9131 74.316L76.7278 72.1294L77.6218 74.4943L79.2559 81.3866L79.3739 81.5245L79.4884 81.4617L79.511 81.3576L78.3243 76.3477L80.2265 81.377L80.3549 81.4848L80.454 81.422L80.4665 81.2971L77.8693 74.4361L77.526 72.985L78.1679 74.3208L80.4255 81.153L80.5501 81.2716L80.6547 81.2073L80.6731 81.094L79.0222 76.0985L81.317 80.8723L81.4492 80.9644L81.5366 80.9048L81.5625 80.8495L78.408 74.2362L77.6879 72.0594L78.9645 74.0405L82.1404 80.6836L82.2683 80.7744L82.3596 80.7124L82.3859 80.6571L80.048 75.7223L82.8806 80.1173L82.9429 80.1765L83.0118 80.1731L83.0916 80.1183L83.1118 80.053L79.1791 73.901L78.1851 71.8269L79.4596 73.3286L83.2326 79.3355L83.2949 79.3951L83.3639 79.3913L83.4442 79.3369L83.4639 79.2741L80.6212 74.7022L83.8578 78.5139L83.9381 78.4983L84.0179 78.4435L84.0146 78.3371L83.9803 78.2696L79.6444 73.1484L78.4849 71.3031L79.9359 72.5917L84.3571 77.9283L84.4168 77.6126L81.19 73.7001L84.4788 76.619C84.4858 76.5064 84.49 76.3925 84.4966 76.28L80.0877 72.3667L78.8588 70.8772L80.0901 71.678L84.5172 75.8953C84.5234 75.7813 84.5297 75.668 84.5352 75.5531L81.2937 72.4612L84.5611 74.5873C84.5628 74.4772 84.5624 74.3671 84.5624 74.2555L80.209 71.4279L78.7792 70.0627L80.2106 70.6328L84.5653 73.6311L84.5786 73.537L84.5343 73.278Z" fill="#A0A0A0"/>
<path d="M74.6098 80.7815C69.5314 77.4675 65.4154 69.4081 65.4318 62.8118C65.4485 56.2026 69.5915 53.5329 74.6701 56.8474C79.7485 60.1619 83.8648 68.2208 83.8481 74.8318C83.8319 81.4276 79.6887 84.0974 74.6098 80.7815ZM74.6738 55.3915C68.9793 51.6757 64.3299 54.6706 64.3111 62.0801C64.2927 69.4772 68.9117 78.5343 74.6065 82.2506C80.3009 85.9678 84.9504 82.9597 84.9688 75.5626C84.9875 68.1531 80.3682 59.1078 74.6738 55.3915Z" fill="#686868"/>
<path d="M75.4378 65.9494C74.8983 65.5973 74.4113 65.5671 74.0612 65.8043L72.9548 66.5271C72.6036 66.763 72.389 67.248 72.389 67.9391C72.389 69.3292 73.2525 71.0209 74.3184 71.7167C74.9812 72.1488 75.5152 71.913 75.4997 71.9237L76.8148 71.1302C77.1564 70.899 77.3672 70.4135 77.3672 69.7262C77.3672 68.3361 76.5033 66.6443 75.4378 65.9494Z" fill="#686868"/>
<path d="M45.7304 17.0055C45.7137 16.9946 45.5414 16.9086 45.3983 16.8806C43.0262 16.4269 40.7661 15.2981 39.9047 14.8334C39.0638 14.3806 36.5046 12.9999 32.9185 10.0947C31.2171 8.71645 29.6937 7.06106 27.8375 5.92238C27.1798 5.51966 26.6617 5.50732 26.0499 5.88269L33.2392 14.4898L45.4422 19.4379C46.6219 18.536 46.2016 17.3383 45.7304 17.0055Z" fill="#333333"/>
<path d="M44.6528 17.0877C43.3829 16.858 40.665 16.1282 36.9734 13.8026C36.7569 13.6669 36.5436 13.5303 36.3337 13.3932C34.0414 11.8976 32.14 10.3538 30.6116 9.05915C29.0724 7.75444 27.9099 6.69562 27.1104 6.17287C26.6237 5.85571 26.2717 5.737 26.05 5.88269L16.1732 12.3708C22.1633 18.1815 28.3816 23.3632 35.5408 25.9577L45.3236 19.5371L45.4176 19.4691C46.0169 18.9997 45.3892 17.2163 44.6528 17.0877Z" fill="#444342"/>
<path d="M34.9868 23.7337C33.7557 23.0148 30.0149 23.408 20.7348 15.5472C19.1956 14.243 18.0331 13.1842 17.2332 12.6614C16.7468 12.3443 16.3943 12.2257 16.1732 12.3708C16.0038 12.4893 15.5547 12.8052 15.3974 13.4844C14.6761 16.5966 24.5479 22.8129 24.9686 23.0753C28.4175 25.2331 33.0348 27.4968 35.4467 26.0253L35.5408 25.9577C36.1028 25.5133 35.6307 24.1085 34.9868 23.7337Z" fill="#333333"/>
<path d="M32.594 24.7608C28.0035 23.4369 23.4636 20.137 19.656 16.9109C18.1121 15.603 16.9752 14.5683 16.2438 14.0927C15.6579 13.7359 15.5358 13.7699 15.5061 14.3131C15.3895 15.4238 19.2072 19.1108 23.7359 22.0731C31.4764 27.1219 35.0026 26.4308 34.094 25.3162C33.7611 24.9083 33.0683 24.8974 32.594 24.7608Z" fill="#282828"/>
<path d="M55.6348 43.6093L48.6403 30.5815C48.2875 29.9231 47.5322 29.7151 46.9489 30.1131C46.3685 30.5111 46.1825 31.3681 46.5353 32.0237L53.5298 45.0529C53.8676 45.683 54.0325 46.4056 54.0057 47.1412L53.7644 53.7569C53.7364 54.5142 53.4157 55.2114 52.8846 55.6723L49.945 58.2172C49.4415 58.654 48.762 58.6998 48.2155 58.3345L25.1058 42.8842L25.526 42.5892L27.9208 43.8679C28.2733 44.0546 28.6827 44.0446 29.0255 43.8381L34.873 40.3142C35.0055 40.2342 35.1248 40.1265 35.2235 39.9984L40.5323 33.09C40.978 32.5092 40.9238 31.6304 40.4103 31.1261C39.8959 30.6212 39.1185 30.6832 38.6736 31.2641L33.514 37.9786L28.4129 41.052L25.9718 39.7489C25.5941 39.5456 25.1518 39.5773 24.7959 39.8255L22.9556 41.1177C22.8139 41.2179 22.6905 41.3498 22.5948 41.5048C22.2657 42.0394 22.1469 42.7126 22.2699 43.3488C22.3923 43.9855 22.7474 44.5419 23.2429 44.8723L46.961 60.7282C47.5974 61.1554 48.3037 61.3658 49.0066 61.3658C49.8672 61.3658 50.724 61.0486 51.4419 60.4271L54.382 57.882C55.4948 56.9164 56.1663 55.4558 56.224 53.8718L56.4652 47.2566C56.5126 45.9713 56.2252 44.7102 55.6348 43.6093Z" fill="#B7B7B7"/>
<path d="M51.7117 53.9034C51.4779 53.3103 51.0527 52.6221 50.4734 51.8775C48.8548 49.7963 46.0322 47.2782 42.8192 45.1809C38.7296 42.5117 35.2681 41.3488 34.1128 42.1076L32.1976 43.3658C33.3534 42.6072 36.8149 43.77 40.904 46.4383C44.1172 48.5352 46.9397 51.0545 48.5584 53.1349C49.1379 53.8803 49.5628 54.569 49.7965 55.1618C49.9324 55.5055 50.0035 55.8174 50.0026 56.0902C50.0018 56.4749 49.8572 56.7518 49.5903 56.9273L51.5055 55.6689C51.7722 55.4946 51.917 55.2161 51.9178 54.8313C51.9183 54.5605 51.8471 54.2481 51.7117 53.9034Z" fill="#777674"/>
<path d="M40.9041 46.4383C35.8728 43.1555 31.7921 42.151 31.7866 44.2011C31.7816 46.2521 35.8544 50.5804 40.8852 53.8633C45.9165 57.1475 49.9972 58.1411 50.0027 56.0902C50.0077 54.0387 45.9349 49.7226 40.9041 46.4383Z" fill="#605E5C"/>
<path d="M44.79 35.4856L44.7812 39.0956L46.729 37.815L46.7382 34.2056L44.79 35.4856Z" fill="#777674"/>
<path d="M44.7771 30.3769L42.8288 31.6574L44.79 35.4856L46.7382 34.2056L44.7771 30.3769Z" fill="#898785"/>
<path d="M41.9976 28.5631L40.0494 29.8431L42.8288 31.6574L44.7771 30.3769L41.9976 28.5631Z" fill="#777674"/>
<path d="M42.8287 31.6574L40.0494 29.8431L38.084 31.109L38.0752 34.7184L40.0275 38.5534L42.807 40.3671L44.7812 39.0955L44.79 35.4856L42.8287 31.6574Z" fill="#605E5C"/>
<path d="M38.3044 20.2765C34.0463 26.0881 44.2497 33.3997 52.9026 34.7937C58.6848 35.7253 61.9543 33.3052 62.8864 26.7537C63.0726 25.4471 63.195 24.0952 62.9136 22.809C60.9755 13.9491 42.4931 14.5598 38.3044 20.2765Z" fill="#FFAF24"/>
<mask id="mask0_0_1" style="mask-type:luminance" maskUnits="userSpaceOnUse" x="45" y="16" width="15" height="6">
<path d="M55.9138 21.5286C54.9111 21.5286 53.7878 21.4402 52.6111 21.254C48.6128 20.621 45.5017 19.0967 45.6631 17.8487C45.7765 16.9691 47.4892 16.4623 49.8923 16.4623C50.8946 16.4623 52.0174 16.5508 53.1944 16.737C55.3957 17.0839 57.3275 17.7027 58.5929 18.3971L59.1302 19.4109L57.9824 20.1602L57.1929 18.9671L56.9817 19.1061C56.6785 19.3131 56.352 19.5661 56.0362 19.8297L56.7756 20.9482L56.607 21.0583C56.4113 21.185 56.2404 21.3448 56.0965 21.5277C56.0358 21.5277 55.9748 21.5286 55.9138 21.5286Z" fill="white"/>
</mask>
<g mask="url(#mask0_0_1)">
<path d="M55.9138 21.5286C54.9111 21.5286 53.7878 21.4402 52.6111 21.254C48.6128 20.621 45.5017 19.0967 45.6631 17.8487C45.7765 16.9691 47.4892 16.4623 49.8923 16.4623C50.8946 16.4623 52.0174 16.5508 53.1944 16.737C55.3957 17.0839 57.3275 17.7027 58.5929 18.3971L59.1302 19.4109L57.9824 20.1602L57.1929 18.9671L56.9817 19.1061C56.6785 19.3131 56.352 19.5661 56.0362 19.8297L56.7756 20.9482L56.607 21.0583C56.4113 21.185 56.2404 21.3448 56.0965 21.5277C56.0358 21.5277 55.9748 21.5286 55.9138 21.5286Z" fill="url(#paint0_linear_0_1)"/>
</g>
<path d="M26.8052 40.2934C26.8052 40.2934 25.3528 38.9831 23.0664 37.2271C21.9278 36.3413 20.5793 35.3453 19.1224 34.3035C17.6643 33.264 16.0912 32.1896 14.5035 31.144C11.3289 29.0505 8.07852 27.1058 5.57879 25.7677C3.08701 24.4163 1.3433 23.6756 1.3433 23.6756C0.956509 23.512 0.50281 23.633 0.225993 24.0144C-0.12233 24.4933 -0.0612798 25.2014 0.362729 25.5947C0.362729 25.5947 1.80202 26.9319 4.08389 28.695C6.35865 30.4737 9.47348 32.6831 12.6644 34.744C14.2597 35.775 15.8692 36.7785 17.395 37.686C18.9216 38.5907 20.3584 39.4137 21.6066 40.0854C24.0947 41.4453 25.825 42.2125 25.825 42.2125C26.2184 42.387 26.6839 42.2611 26.9616 41.8678C27.3031 41.3838 27.2334 40.6795 26.8052 40.2934Z" fill="#B7B7B7"/>
<path d="M46.6587 56.4721C46.5525 56.4721 46.4458 56.4423 46.351 56.3789C46.1602 56.2556 46.0428 56.0245 46.0428 55.7763V45.3974C46.0428 42.4163 47.462 39.6378 49.7456 38.1478L50.8963 37.3977C51.1907 37.209 51.567 37.3193 51.7372 37.6529C51.907 37.9848 51.8062 38.4106 51.5118 38.603L50.3615 39.3532C48.4572 40.595 47.2743 42.9112 47.2743 45.3974V54.5714L47.4783 54.4381C47.7722 54.2481 48.1486 54.3606 48.3192 54.6924C48.4889 55.0252 48.3882 55.451 48.0938 55.6434L46.9665 56.3789C46.8711 56.4409 46.7649 56.4721 46.6587 56.4721Z" fill="#B7B7B7"/>
<path d="M44.1214 54.8157C44.0151 54.8157 43.9085 54.7855 43.8136 54.7226C43.6233 54.5992 43.5059 54.3681 43.5059 54.1199V43.7412C43.5059 40.7594 44.9242 37.9824 47.2078 36.4925L49.1049 35.2535C49.4001 35.0635 49.7761 35.1761 49.9458 35.5089C50.1156 35.8416 50.0148 36.2665 49.7204 36.4589L47.8237 37.6979C45.9194 38.9396 44.7373 41.2553 44.7373 43.7412V52.9147L44.9409 52.7813C45.234 52.5904 45.612 52.7029 45.7818 53.0357C45.952 53.3684 45.8513 53.7943 45.5569 53.9867L44.4291 54.7226C44.3342 54.7841 44.2276 54.8157 44.1214 54.8157Z" fill="#B7B7B7"/>
<path d="M39.1918 49.8397C38.9522 49.6838 38.7355 49.6706 38.58 49.7755L32.7288 53.5949L33.9526 55.9615L39.804 52.1428C39.9558 52.0397 40.0494 51.8246 40.0494 51.5182C40.0494 50.9 39.6655 50.1484 39.1918 49.8397Z" fill="#333333"/>
<path d="M34.1981 55.3371C34.1981 55.9554 33.8142 56.206 33.3409 55.8973C32.8671 55.5876 32.4833 54.8361 32.4833 54.2178C32.4833 53.5996 32.8671 53.349 33.3409 53.6586C33.8142 53.9673 34.1981 54.7189 34.1981 55.3371Z" fill="#262626"/>
<path d="M67.9001 8.93814C67.7483 8.93814 67.594 8.89555 67.4519 8.80625C67.0065 8.52539 66.8464 7.89009 67.0948 7.3867L69.9269 1.64595C70.1761 1.14256 70.7373 0.962376 71.1826 1.24324C71.628 1.52252 71.7881 2.15878 71.5397 2.66217L68.708 8.40304C68.5386 8.74574 68.2246 8.93814 67.9001 8.93814Z" fill="#333333"/>
<path d="M63.7533 20.7883C63.4982 20.7883 63.2499 20.638 63.1132 20.3705C62.909 19.9702 63.0303 19.4606 63.3837 19.2294L65.4536 17.8789C65.704 17.7145 65.8734 17.4351 65.9169 17.1109L67.0279 8.26023C67.0847 7.80403 67.4565 7.4968 67.8634 7.5498C68.2669 7.61502 68.5479 8.03758 68.4906 8.49378L67.3783 17.3529C67.2663 18.1891 66.8347 18.9052 66.1928 19.3253L64.1218 20.6759C64.006 20.7519 63.8788 20.7883 63.7533 20.7883Z" fill="#4E4E4E"/>
<path d="M69.7789 18.4684C70.1862 19.5504 68.6616 21.7248 67.5877 21.2384C66.6473 20.8124 65.6409 18.4311 67.3466 17.5632C68.021 17.2669 68.8134 17.4328 69.4661 18.0061C69.6442 18.1636 69.7321 18.3436 69.7789 18.4684Z" fill="#333333"/>
<path d="M69.4255 18.6329C69.1412 18.38 68.56 18.6793 68.1268 19.3008C67.6936 19.9229 67.5732 20.6319 67.8571 20.8848C68.141 21.1377 68.7227 20.8389 69.1559 20.2169C69.5887 19.5948 69.7095 18.8858 69.4255 18.6329Z" fill="#E9751C"/>
<path d="M62.7092 18.7166L61.3552 16.1622L61.5777 16.0474L62.932 18.6027L62.7092 18.7166Z" fill="#ADADAD"/>
<path d="M62.932 18.6027L61.5776 16.0474C62.0175 15.8317 62.2818 15.7712 62.3287 15.8597L63.683 18.414C63.6362 18.3257 63.372 18.3875 62.932 18.6027Z" fill="#4E4E4E"/>
<path d="M59.9443 20.9467L58.59 18.3923C58.5586 18.3318 58.6271 18.2032 58.8087 18.0076C59.1273 17.6649 59.721 17.194 60.3487 16.7734L61.7036 19.3278C61.0755 19.7489 60.4817 20.2192 60.163 20.5629C59.9816 20.7591 59.913 20.8877 59.9443 20.9467Z" fill="#4E4E4E"/>
<path d="M61.7035 19.3278L60.3486 16.7734C60.687 16.5456 61.0349 16.3328 61.3552 16.1622L62.7091 18.7166C62.3893 18.8882 62.0414 19.1014 61.7035 19.3278Z" fill="#ADADAD"/>
<path d="M62.7091 18.7166C63.6182 18.2311 63.9557 18.269 63.4656 18.7964C62.9721 19.3287 61.8343 20.1531 60.9253 20.6395C60.0104 21.1297 59.6696 21.0943 60.163 20.5629C60.6531 20.0345 61.7942 19.2068 62.7091 18.7166Z" fill="#1A1A1A"/>
<path d="M58.5602 21.4913L56.9817 19.1061L57.1929 18.967L58.771 21.3522L58.5602 21.4913Z" fill="#ADADAD"/>
<path d="M58.771 21.3522L57.1929 18.967C57.611 18.7009 57.8682 18.6102 57.9225 18.6925L59.501 21.0772C59.4468 20.9949 59.1895 21.0857 58.771 21.3522Z" fill="#4E4E4E"/>
<path d="M56.0112 24.0287L54.4331 21.644C54.3958 21.5882 54.4527 21.4525 54.6158 21.2369C54.9018 20.8583 55.4496 20.3223 56.0362 19.8297L57.6143 22.2149C57.0281 22.7075 56.4799 23.2435 56.1943 23.6221C56.0312 23.8376 55.9744 23.9734 56.0112 24.0287Z" fill="#4E4E4E"/>
<path d="M57.6144 22.2149L56.0363 19.8297C56.352 19.566 56.6785 19.3131 56.9817 19.1061L58.5602 21.4913C58.2571 21.6983 57.9301 21.9498 57.6144 22.2149Z" fill="#ADADAD"/>
<path d="M58.5602 21.4913C59.4204 20.9032 59.7591 20.9009 59.3192 21.4828C58.8767 22.0698 57.8193 23.0208 56.9591 23.6104C56.0935 24.2031 55.7515 24.2078 56.1943 23.6221C56.6338 23.0403 57.6943 22.084 58.5602 21.4913Z" fill="#1A1A1A"/>
<path d="M64.4905 21.0857L58.0133 25.3125L63.5627 41.2747L69.1851 37.6047L64.4905 21.0857Z" fill="#FFAF24"/>
<path d="M59.0608 27.2462L60.7222 32.0237L66.3446 28.3547L64.956 23.4676C62.948 24.6437 60.9505 25.8391 59.0608 27.2462Z" fill="#333333"/>
<path d="M59.159 24.8044L74.1875 69.8378C74.3137 70.215 74.1448 70.6375 73.8107 70.7803C73.482 70.9194 73.1157 70.7369 72.9832 70.3724L56.8675 25.822C56.6099 25.1106 56.9118 24.2976 57.5411 24.0069C58.1705 23.7153 58.8893 24.0565 59.1464 24.7679L59.159 24.8044Z" fill="#333333"/>
<path d="M62.4437 17.2489L56.607 21.0583C55.7628 21.6086 55.3744 22.751 55.6745 23.7989L56.4582 26.5339C56.5677 26.9149 56.7981 27.2377 57.1055 27.4376L58.8868 28.6005L66.4713 23.6501C66.8138 23.4274 67.025 23.0138 67.025 22.5671V20.4665C67.025 19.635 66.6323 18.8678 65.9954 18.4514L64.1518 17.2489C63.6232 16.9039 62.9722 16.9039 62.4437 17.2489Z" fill="#333333"/>
<path d="M58.0999 26.0911C58.5066 27.1725 56.9821 29.3469 55.9083 28.8604C54.9683 28.4346 53.9613 26.0532 55.6674 25.1858C56.3419 24.889 57.1339 25.0549 57.7866 25.6287C57.9652 25.7856 58.053 25.9662 58.0999 26.0911Z" fill="#333333"/>
<path d="M57.7461 26.2555C57.4622 26.0026 56.8805 26.3014 56.4473 26.9233C56.0145 27.5454 55.8936 28.2544 56.1781 28.5073C56.4619 28.7602 57.0432 28.4615 57.4763 27.8395C57.9095 27.2174 58.0304 26.5084 57.7461 26.2555Z" fill="#E9751C"/>
<path d="M54.5226 26.4053C53.8656 26.4053 53.2078 26.2275 52.6028 25.8694C50.6103 24.6956 47.2357 22.8442 47.2023 22.8271C46.8347 22.6262 46.6817 22.1266 46.8594 21.7115C47.038 21.2965 47.4796 21.1245 47.8462 21.3244C47.8806 21.3423 51.2739 23.2023 53.2865 24.3908C54.101 24.871 55.0657 24.8478 55.8648 24.3255L56.5631 23.8689C56.9165 23.6392 57.3677 23.7748 57.5726 24.1752C57.7762 24.5746 57.6549 25.0851 57.302 25.3153L56.6032 25.7715C55.9563 26.1935 55.2397 26.4053 54.5226 26.4053Z" fill="#4E4E4E"/>
<path d="M39.3464 26.1524C38.9583 26.1524 38.5971 25.8731 38.4696 25.4339C38.3102 24.8865 38.574 24.2976 39.0588 24.117L47.2361 21.0833C47.7229 20.9056 48.2427 21.2034 48.4011 21.7502C48.5604 22.2972 48.2966 22.8876 47.8119 23.0667L39.6346 26.1005L39.3464 26.1524Z" fill="#333333"/>
<path d="M69.9868 26.8095C71.013 29.5369 67.1696 35.0201 64.4629 33.793C62.0925 32.7185 59.555 26.7155 63.8553 24.5297C65.5551 23.782 67.5522 24.1984 69.1977 25.6453C69.6481 26.0413 69.8688 26.4975 69.9868 26.8095Z" fill="#4E4E4E"/>
<path d="M69.3039 26.8142C68.4927 26.0933 66.833 26.9466 65.5969 28.7215C64.3609 30.4969 64.0159 32.5209 64.8271 33.2423C65.6384 33.9646 67.2976 33.1104 68.534 31.3354C69.7701 29.5601 70.1147 27.537 69.3039 26.8142Z" fill="#F0FDFF"/>
<path d="M72.4226 2.54115C72.047 3.27579 71.1104 3.45864 70.3305 2.95052C69.5502 2.44096 69.2224 1.43272 69.5979 0.697235C69.9734 -0.0372849 70.9101 -0.221221 71.6899 0.288345C72.4702 0.797426 72.798 1.80567 72.4226 2.54115Z" fill="#333333"/>
<path d="M39.326 27.1073C38.6114 27.3672 37.8081 26.7924 37.5317 25.8235C37.2557 24.854 37.6107 23.8579 38.3258 23.598C39.0404 23.3366 39.8437 23.9114 40.1197 24.881C40.3961 25.8499 40.0407 26.8473 39.326 27.1073Z" fill="#333333"/>
<path d="M58.1236 23.4699C57.9845 23.4699 57.8911 23.4344 57.8531 23.3598C57.6587 22.9783 64.0849 18.7639 64.7978 18.7639C64.8284 18.7639 64.8489 18.7709 64.8573 18.788C65.0596 19.185 63.6563 20.5294 61.7219 21.7914C60.1542 22.8152 58.7191 23.4699 58.1236 23.4699Z" fill="#545454"/>
<path d="M66.4997 26.4261C66.1259 26.4261 65.7876 26.2833 65.638 26.0314C65.4184 25.6623 65.6848 25.199 66.2325 24.9968C66.4056 24.9329 66.5859 24.9026 66.7586 24.9026C67.1328 24.9026 67.4712 25.0454 67.6208 25.2969C67.8404 25.6661 67.574 26.1283 67.0262 26.3316C66.8531 26.3959 66.6729 26.4261 66.4997 26.4261Z" fill="#797979"/>
<path d="M9.02148 9.49212C7.98236 9.44383 6.72079 11.8238 7.50274 12.7872C8.18726 13.6319 10.5139 13.8545 10.6289 11.7454C10.6364 10.9272 10.2195 10.1468 9.51406 9.65899C9.3213 9.52612 9.14065 9.49683 9.02148 9.49212Z" fill="#333333"/>
<defs>
<linearGradient id="paint0_linear_0_1" x1="45.6569" y1="18.9949" x2="60.1486" y2="18.9949" gradientUnits="userSpaceOnUse">
<stop stop-color="#FFC331"/>
<stop offset="1" stop-color="#FFD539"/>
</linearGradient>
</defs>
</svg>
