<svg width="137" height="133" viewBox="0 0 137 133" fill="none" xmlns="http://www.w3.org/2000/svg">
<mask id="mask0_0_1" style="mask-type:luminance" maskUnits="userSpaceOnUse" x="0" y="0" width="52" height="78">
<path d="M24.1356 77.7865C23.9754 77.7865 23.8149 77.7393 23.6714 77.6461L1.34404 63.0731C0.987355 62.8408 0.767822 62.41 0.767822 61.9453V42.8551L2.75573 44.1632C2.91962 44.2709 3.09443 44.3193 3.26463 44.3193C3.77311 44.3193 4.2439 43.8837 4.2849 43.2472L4.63912 37.7364C5.20776 37.4 5.784 37.0794 6.36815 36.7732L6.42168 36.7393C6.62154 36.6086 6.39577 36.0689 6.1365 36.0689C6.10011 36.0689 6.06296 36.0798 6.02657 36.104C5.58242 36.4574 5.13293 36.7998 4.67798 37.1314L4.84605 34.5152C5.41854 34.1764 5.99852 33.8533 6.58642 33.5447L6.63995 33.5096C6.83938 33.3801 6.61404 32.8405 6.35477 32.8405C6.31838 32.8405 6.28123 32.8513 6.24483 32.8755C5.79695 33.2313 5.34371 33.5774 4.88501 33.9114L5.40804 25.7711C5.44701 25.16 5.17393 24.5792 4.70517 24.2731L2.06784 22.5511L2.2297 20.022C2.2297 19.4932 2.47933 19.0032 2.88451 18.7394L31.2576 0.221489C31.4842 0.0738525 31.7367 3.05176e-05 31.9893 3.05176e-05C32.2419 3.05176e-05 32.4945 0.0738525 32.7207 0.221489L51.3712 12.3937C51.7526 12.643 51.9875 13.1028 51.9875 13.6002V14.4605L51.9993 59.1561C51.9993 59.5312 51.8219 59.8797 51.5339 60.0673L33.8196 71.6284L24.0042 65.2222V74.5362L26.6842 76.2848L24.5997 77.6461C24.4563 77.7393 24.2957 77.7865 24.1356 77.7865ZM5.0869 64.2614L10.9854 68.1107V61.0135L6.78382 58.2715L5.0869 57.1643V64.2614ZM25.2374 39.2515L24.6005 39.6665V62.3604L25.2374 61.9453V39.2515ZM50.8255 22.5511L50.1887 22.9674V45.6613L50.8255 45.245V22.5511Z" fill="white"/>
</mask>
<g mask="url(#mask0_0_1)">
<path d="M24.1356 77.7865C23.9754 77.7865 23.8149 77.7393 23.6714 77.6461L1.34404 63.0731C0.987355 62.8408 0.767822 62.41 0.767822 61.9453V42.8551L2.75573 44.1632C2.91962 44.2709 3.09443 44.3193 3.26463 44.3193C3.77311 44.3193 4.2439 43.8837 4.2849 43.2472L4.63912 37.7364C5.20776 37.4 5.784 37.0794 6.36815 36.7732L6.42168 36.7393C6.62154 36.6086 6.39577 36.0689 6.1365 36.0689C6.10011 36.0689 6.06296 36.0798 6.02657 36.104C5.58242 36.4574 5.13293 36.7998 4.67798 37.1314L4.84605 34.5152C5.41854 34.1764 5.99852 33.8533 6.58642 33.5447L6.63995 33.5096C6.83938 33.3801 6.61404 32.8405 6.35477 32.8405C6.31838 32.8405 6.28123 32.8513 6.24483 32.8755C5.79695 33.2313 5.34371 33.5774 4.88501 33.9114L5.40804 25.7711C5.44701 25.16 5.17393 24.5792 4.70517 24.2731L2.06784 22.5511L2.2297 20.022C2.2297 19.4932 2.47933 19.0032 2.88451 18.7394L31.2576 0.221489C31.4842 0.0738525 31.7367 3.05176e-05 31.9893 3.05176e-05C32.2419 3.05176e-05 32.4945 0.0738525 32.7207 0.221489L51.3712 12.3937C51.7526 12.643 51.9875 13.1028 51.9875 13.6002V14.4605L51.9993 59.1561C51.9993 59.5312 51.8219 59.8797 51.5339 60.0673L33.8196 71.6284L24.0042 65.2222V74.5362L26.6842 76.2848L24.5997 77.6461C24.4563 77.7393 24.2957 77.7865 24.1356 77.7865ZM5.0869 64.2614L10.9854 68.1107V61.0135L6.78382 58.2715L5.0869 57.1643V64.2614ZM25.2374 39.2515L24.6005 39.6665V62.3604L25.2374 61.9453V39.2515ZM50.8255 22.5511L50.1887 22.9674V45.6613L50.8255 45.245V22.5511Z" fill="url(#paint0_linear_0_1)"/>
</g>
<path d="M4.70517 24.273L2.06784 22.5511L0.767822 42.855L2.75573 44.1631C3.4085 44.5891 4.23009 44.0966 4.2849 43.2471L5.40804 25.7711C5.44701 25.16 5.17393 24.5792 4.70517 24.273Z" fill="#282523"/>
<path d="M2.78665 18.8035L23.0044 31.9982L51.7973 13.2068C51.6238 12.7627 51.3444 12.3767 50.9606 12.1262L33.1317 0.49008C32.4246 0.0278282 31.5536 0.0278282 30.8469 0.49008L2.78665 18.8035Z" fill="#E9E6E3"/>
<path d="M10.9854 61.0136L5.08688 57.1643V64.2614L10.9854 68.1107V61.0136Z" fill="#B0ADAA"/>
<path d="M5.08688 64.2614V57.1643L6.7838 58.2715V63.153L5.08688 64.2614Z" fill="#BAB7B4"/>
<path d="M6.7838 63.153L5.08688 64.2614L10.9854 68.1107V65.8951L6.7838 63.153Z" fill="#454545"/>
<path d="M4.02905 24.7667L2.01474 23.4513L0.850189 41.5675L2.42623 42.5972C2.54869 42.6771 2.67833 42.717 2.8147 42.717C3.17267 42.717 3.56147 42.4109 3.5954 41.8978L4.61192 26.0106C4.64372 25.506 4.41496 25.0184 4.02905 24.7667Z" fill="#454545"/>
<path d="M15.9665 32.2015C16.2257 32.3709 16.5498 33.0049 16.5498 33.3438V42.9216C16.5498 43.627 16.2488 43.8981 15.7416 43.6476L6.97319 39.0856C6.78254 38.9912 6.51749 38.4915 6.51749 38.2265L7.29936 26.9908C7.29936 26.7101 7.43199 26.6242 7.64652 26.7645L15.9665 32.2015Z" fill="#282523"/>
<path d="M15.5701 42.5319C15.9932 42.7401 16.2487 42.5114 16.2487 41.916V33.2918L16.1279 33.0546L7.79702 27.5947C7.67574 27.5173 7.60006 27.5657 7.60006 27.723L6.98785 37.4145C6.96612 37.7618 7.13633 38.0885 7.41562 38.2362L15.5701 42.5319Z" fill="#454545"/>
<path d="M16.1228 57.5043L17.3543 58.2328V32.4968L6.52742 25.4614L5.34915 45.0453V54.4162L12.0371 58.781L16.1228 57.5043ZM5.19854 54.5142L5.14801 54.3497L5.14844 44.7767L6.33088 25.131L6.38023 25.1044L17.4041 32.2669L17.5044 32.3975L17.555 32.5621V58.5583L17.5078 58.5934L16.0877 57.7306L12.0011 59.006L5.29852 54.6449L5.24831 54.5941L5.19854 54.5142Z" fill="#B0ADAA"/>
<path d="M15.417 49.9135L15.9393 50.2547C16.2454 50.4544 16.4929 50.3358 16.4929 49.9897V46.3716C16.4929 46.0267 16.2454 45.5838 15.9393 45.3841L15.417 45.0441C15.1114 44.8444 14.863 44.9631 14.863 45.3079V48.9261C14.863 49.2721 15.1114 49.7138 15.417 49.9135Z" fill="#DDDBD8"/>
<path d="M15.6567 45.6515V49.6194C15.4074 49.456 15.2054 49.0954 15.2054 48.8147V45.8669C15.2054 45.585 15.4074 45.4882 15.6567 45.6515Z" fill="#B0ADAA"/>
<path d="M6.24482 32.8755C5.44442 33.512 4.62572 34.1147 3.78979 34.6822C3.38044 34.9847 2.93212 35.2134 2.55457 35.6551L2.79339 35.9104C3.09355 35.5462 3.55396 35.309 3.97551 35.0452C4.82804 34.5103 5.69823 34.0094 6.5864 33.5447L6.63993 33.5096C6.8674 33.362 6.54209 32.6819 6.24482 32.8755Z" fill="#2C2927"/>
<path d="M6.02652 36.1041C5.22613 36.7418 4.40743 37.3432 3.5715 37.9107C3.16215 38.2132 2.71383 38.4407 2.33627 38.8824L2.5751 39.1389C2.87526 38.7747 3.33567 38.5375 3.75712 38.2737C4.60975 37.7389 5.47994 37.2391 6.36811 36.7732L6.42164 36.7393C6.64954 36.5905 6.32379 35.9104 6.02652 36.1041Z" fill="#2C2927"/>
<path d="M3.04348 33.627C2.95013 33.5652 2.8205 33.5749 2.67759 33.6681L1.18556 34.6422C0.904562 34.8249 0.675834 35.2642 0.676669 35.6296L0.681689 41.8349C0.682106 42.0164 0.739398 42.1447 0.830967 42.204L1.27547 42.4968L3.48794 33.9198L3.04348 33.627Z" fill="#C9C6C3"/>
<path d="M3.63383 34.2828C3.63297 33.9186 3.40304 33.7782 3.12246 33.961L1.62963 34.9351C1.34905 35.1178 1.12032 35.5583 1.12116 35.9225L1.12617 42.1278C1.12701 42.4932 1.35741 42.6421 1.63799 42.4582L3.13039 41.484C3.41096 41.3013 3.64015 40.8524 3.63886 40.4881L3.63383 34.2828Z" fill="#7BCDDB"/>
<path d="M3.63635 37.4061L3.63466 35.2521H3.63509L3.63667 37.4061H3.63635Z" fill="#7BACB5"/>
<path d="M3.63467 35.2521V34.7923L3.6351 35.2521H3.63467Z" fill="#71A1A9"/>
<path d="M1.12115 35.9225C1.12115 35.9067 1.12157 35.8898 1.12241 35.8728C1.12157 35.8898 1.12115 35.9055 1.12115 35.9225Z" fill="#B0E0E7"/>
<path d="M1.1245 40.2461L1.12115 35.9225C1.12115 35.9055 1.12157 35.8898 1.12241 35.8728C1.12241 35.8716 1.12241 35.8716 1.12241 35.8704C1.12283 35.8692 1.12282 35.8692 1.12282 35.868C1.12282 35.8656 1.12324 35.862 1.12324 35.8595C1.12366 35.8511 1.12449 35.8438 1.12491 35.8366C1.12491 35.8366 1.12533 35.8366 1.12533 35.8354C1.12533 35.8329 1.12575 35.8305 1.12575 35.8293C1.12575 35.8281 1.12575 35.8281 1.12616 35.8269C1.12616 35.8245 1.12659 35.822 1.12659 35.8196C1.12701 35.8196 1.12701 35.8184 1.12701 35.8184C1.12701 35.816 1.12743 35.8135 1.12785 35.8111C1.12785 35.8111 1.12785 35.8099 1.12785 35.8087C1.12785 35.8087 1.12826 35.8075 1.12826 35.8063C1.12868 35.8027 1.1291 35.8003 1.12952 35.7966C1.13035 35.7906 1.13119 35.7833 1.13244 35.7773C1.13244 35.7761 1.13244 35.7748 1.13244 35.7748C1.13286 35.7712 1.1337 35.7688 1.13412 35.7652C1.13412 35.7639 1.13454 35.7627 1.13454 35.7615C1.13537 35.7567 1.13621 35.7519 1.13704 35.747C1.13871 35.7385 1.14039 35.7288 1.14206 35.7204C1.14206 35.7192 1.14248 35.718 1.1429 35.7168C1.14331 35.7143 1.14331 35.7131 1.14373 35.7119C1.14415 35.7107 1.14415 35.7095 1.14457 35.7083C1.14498 35.7059 1.1454 35.7047 1.14582 35.7034C1.14582 35.7034 1.14582 35.7034 1.14582 35.7022C1.21189 35.3961 1.40382 35.0827 1.62963 34.935L3.12246 33.9609C3.20564 33.9065 3.28432 33.8811 3.35411 33.8811C3.51929 33.8811 3.6334 34.0263 3.63383 34.2828L3.63468 34.7922V35.2521L3.6364 37.406L1.1245 40.2461Z" fill="#91E3F1"/>
<path d="M19.8934 19.2609L39.4446 6.45096L48.0871 12.0912L28.5358 24.9023L19.8934 19.2609Z" fill="#E9E6E3"/>
<path d="M19.8934 19.2609L39.4445 6.45096L36.2838 7.87765L16.7325 20.6876L19.8934 19.2609Z" fill="#DDDBD8"/>
<path d="M28.5358 24.9023L28.5312 28.3885L16.7099 20.6731L19.8934 19.2609L28.5358 24.9023Z" fill="#C9C6C3"/>
<path d="M28.5358 24.9023L28.5312 28.3885L48.0673 15.6379L48.087 12.0912L28.5358 24.9023Z" fill="#DDDBD8"/>
<path d="M101.87 125.355L24.0042 74.5362V65.2222L101.87 116.041V125.355Z" fill="#26231F"/>
<path d="M129.162 107.544L101.87 125.355V116.041L129.162 98.2284V107.544Z" fill="#38322D"/>
<path d="M101.87 116.041L24.0042 65.2222L51.2959 47.411L129.162 98.2284L101.87 116.041Z" fill="#3F3932"/>
<path d="M78.1682 100.679C76.4558 99.5606 74.9075 99.4675 73.7956 100.22L69.959 102.724L78.7042 119.638L82.5412 117.135C83.6268 116.4 84.2963 114.859 84.2963 112.677C84.2963 108.259 81.5528 102.887 78.1682 100.679Z" fill="#26231F"/>
<path d="M80.4593 115.18C80.4593 119.598 77.7162 121.388 74.3317 119.18C70.9475 116.971 68.2041 111.6 68.2041 107.182C68.2041 102.764 70.9475 100.974 74.3317 103.182C77.7162 105.391 80.4593 110.762 80.4593 115.18Z" fill="#3F3932"/>
<path d="M74.3203 116.889C71.9887 115.43 70.0656 111.751 70.025 108.671C69.9841 105.592 71.8415 104.278 74.1731 105.736C76.5049 107.194 78.4279 110.874 78.4684 113.953C78.5094 117.033 76.652 118.347 74.3203 116.889Z" fill="#A8A8A8"/>
<path d="M74.3104 116.106C72.3057 114.852 70.6519 111.689 70.6172 109.042C70.582 106.394 72.1785 105.264 74.1836 106.517C76.1882 107.772 77.8417 110.934 77.8768 113.583C77.9115 116.231 76.315 117.36 74.3104 116.106Z" fill="#848381"/>
<path d="M74.4888 113.886C73.3557 113.177 72.4215 111.389 72.4014 109.892C72.3818 108.397 73.2842 107.758 74.4174 108.467C75.5502 109.175 76.4847 110.963 76.5044 112.459C76.5244 113.956 75.6217 114.595 74.4888 113.886Z" fill="#A8A8A8"/>
<path d="M75.9545 114.878C75.6108 114.877 75.2248 114.756 74.8163 114.5C73.3406 113.577 72.1234 111.249 72.0975 109.299C72.0791 107.89 72.6883 107.064 73.5852 107.064C73.929 107.064 74.3145 107.185 74.723 107.441C75.5055 107.93 76.215 108.814 76.7131 109.828C77.1546 110.726 77.4297 111.727 77.4418 112.642L77.4394 112.875C77.3909 114.142 76.8008 114.878 75.9545 114.878ZM72.4504 110.465C72.6582 111.82 73.4974 113.265 74.4888 113.886C74.8025 114.082 75.0986 114.175 75.3624 114.175C76.0511 114.175 76.519 113.542 76.5044 112.459C76.4998 112.108 76.4446 111.74 76.3484 111.374C76.3167 111.254 76.2807 111.133 76.2401 111.014C76.2397 111.012 76.2388 111.011 76.2384 111.008C76.2372 111.004 76.2355 111.001 76.2342 110.996C76.2334 110.994 76.2326 110.991 76.2313 110.987C76.2305 110.985 76.2292 110.983 76.2283 110.979C76.2272 110.975 76.2263 110.973 76.225 110.969C76.2242 110.967 76.2234 110.965 76.2226 110.962C76.2209 110.958 76.2196 110.954 76.2184 110.95C76.218 110.949 76.2171 110.946 76.2167 110.945C76.215 110.94 76.2134 110.937 76.2116 110.932C76.2116 110.931 76.2112 110.929 76.2108 110.928C76.2092 110.923 76.207 110.919 76.2054 110.914L76.205 110.912C75.9295 110.143 75.4849 109.416 74.961 108.901C74.961 108.901 74.9606 108.901 74.9601 108.9C74.9564 108.896 74.9527 108.893 74.9488 108.889C74.9481 108.889 74.9476 108.888 74.9468 108.888C74.9434 108.884 74.94 108.881 74.9367 108.877C74.9354 108.877 74.9347 108.876 74.9338 108.875C74.9304 108.872 74.9275 108.869 74.9246 108.866C74.9229 108.865 74.9216 108.864 74.9204 108.863C74.9179 108.859 74.915 108.858 74.9125 108.855C74.9108 108.853 74.9091 108.852 74.9075 108.849C74.9053 108.848 74.9033 108.846 74.9007 108.844C74.8987 108.842 74.8966 108.84 74.8941 108.837C74.8932 108.837 74.8928 108.836 74.892 108.836C74.7389 108.693 74.5805 108.569 74.4174 108.466C74.1033 108.27 73.8072 108.176 73.5438 108.176C72.866 108.176 72.4018 108.791 72.4014 109.843C72.4014 109.86 72.4014 109.875 72.4014 109.892C72.404 110.08 72.4207 110.271 72.4504 110.465Z" fill="#8F8E8D"/>
<path d="M75.3624 114.175C75.0986 114.175 74.8025 114.082 74.4888 113.886C74.8025 114.082 75.099 114.175 75.3624 114.175C76.0122 114.175 76.4655 113.611 76.5023 112.638L76.5044 112.459C76.519 113.542 76.0511 114.175 75.3624 114.175ZM76.205 110.912C76.1302 110.703 76.0427 110.497 75.9449 110.299C75.6823 109.764 75.3427 109.276 74.961 108.901C75.4849 109.416 75.9295 110.143 76.205 110.912Z" fill="#A8A8A8"/>
<path d="M91.4931 109.374C89.7808 108.258 88.2323 108.163 87.1204 108.916L83.284 111.419L92.0296 128.335L95.8662 125.832C96.9517 125.096 97.6212 123.555 97.6212 121.372C97.6212 116.956 94.8776 111.584 91.4931 109.374Z" fill="#26231F"/>
<path d="M93.7846 123.877C93.7846 128.294 91.041 130.085 87.6565 127.877C84.2724 125.667 81.5285 120.295 81.5285 115.877C81.5285 111.461 84.2724 109.67 87.6565 111.879C91.041 114.088 93.7846 119.459 93.7846 123.877Z" fill="#3F3932"/>
<path d="M87.6457 125.585C85.314 124.127 83.3906 120.448 83.35 117.367C83.3094 114.287 85.1665 112.973 87.4981 114.433C89.8297 115.891 91.7532 119.569 91.7938 122.649C91.8344 125.73 89.9773 127.044 87.6457 125.585Z" fill="#A8A8A8"/>
<path d="M87.6352 124.803C85.6307 123.549 83.9768 120.386 83.9421 117.739C83.907 115.09 85.5039 113.961 87.5085 115.214C89.5132 116.468 91.1665 119.631 91.2016 122.279C91.2369 124.926 89.6399 126.057 87.6352 124.803Z" fill="#848381"/>
<path d="M87.8138 122.582C86.681 121.873 85.7465 120.086 85.7264 118.589C85.7067 117.092 86.6091 116.455 87.7423 117.162C88.8755 117.872 89.8097 119.659 89.8293 121.156C89.8494 122.653 88.947 123.292 87.8138 122.582Z" fill="#A8A8A8"/>
<path d="M89.2794 123.574C88.9358 123.574 88.5502 123.453 88.1417 123.197C86.6655 122.274 85.4482 119.945 85.4223 117.995C85.4039 116.587 86.0132 115.761 86.9102 115.761C87.2539 115.761 87.6394 115.882 88.0483 116.138C88.8303 116.626 89.5404 117.511 90.0379 118.525C90.4799 119.423 90.7551 120.422 90.7672 121.339L90.7643 121.572C90.7162 122.839 90.1258 123.574 89.2794 123.574ZM87.8138 122.582C88.1279 122.779 88.4238 122.872 88.6873 122.872C89.0979 122.872 89.43 122.647 89.6281 122.235C89.6286 122.234 89.629 122.234 89.6294 122.233C89.6303 122.232 89.6307 122.229 89.6316 122.228C89.6319 122.227 89.6323 122.226 89.6327 122.226C89.6336 122.223 89.6345 122.222 89.6353 122.221C89.6357 122.219 89.6361 122.218 89.6369 122.217C89.6373 122.216 89.6382 122.215 89.6386 122.212C89.6395 122.211 89.6399 122.21 89.6403 122.209C89.6411 122.207 89.6415 122.206 89.6424 122.205C89.6432 122.204 89.6437 122.203 89.6445 122.2C89.6449 122.2 89.6453 122.199 89.6457 122.198C89.6465 122.195 89.6474 122.194 89.6478 122.193C89.6487 122.192 89.6491 122.19 89.6494 122.189C89.6499 122.188 89.6507 122.186 89.6516 122.184C89.652 122.183 89.6524 122.182 89.6529 122.181C89.6537 122.18 89.6545 122.177 89.6553 122.176C89.6557 122.175 89.6562 122.174 89.6566 122.172C89.6575 122.171 89.6583 122.169 89.6586 122.167C89.6591 122.166 89.6595 122.166 89.6599 122.165C89.6608 122.163 89.6621 122.16 89.6628 122.158C89.6628 122.158 89.6632 122.158 89.6632 122.157C89.6645 122.154 89.6654 122.152 89.6667 122.149C89.6667 122.149 89.6667 122.149 89.6667 122.148C89.7595 121.924 89.8155 121.651 89.8272 121.335L89.8277 121.332C89.8293 121.276 89.8301 121.219 89.8293 121.161L89.8297 121.156C89.8251 120.804 89.7699 120.437 89.6733 120.07C89.5871 119.742 89.468 119.417 89.3221 119.105C89.3195 119.099 89.3171 119.094 89.3146 119.088C89.3142 119.087 89.3137 119.087 89.3133 119.085C89.3112 119.081 89.3091 119.076 89.3066 119.072C89.3061 119.07 89.3054 119.068 89.3045 119.067C89.3028 119.062 89.3008 119.059 89.2986 119.055C89.2978 119.053 89.297 119.051 89.2962 119.049C89.2945 119.045 89.2928 119.042 89.2911 119.038C89.2899 119.036 89.2886 119.035 89.2878 119.032C89.2861 119.029 89.2848 119.026 89.2837 119.022C89.2819 119.02 89.2807 119.018 89.2791 119.014C89.2782 119.012 89.2769 119.009 89.2756 119.008C89.274 119.004 89.2723 119.001 89.2706 118.997C89.2706 118.996 89.2703 118.996 89.2698 118.996C89.2694 118.995 89.269 118.993 89.2686 118.992C89.2664 118.989 89.264 118.984 89.2618 118.979C89.2611 118.978 89.2602 118.975 89.2598 118.974C89.2572 118.97 89.2552 118.966 89.253 118.961C89.2523 118.96 89.2514 118.958 89.2506 118.956C89.2484 118.952 89.2464 118.947 89.2438 118.943C89.2431 118.941 89.2427 118.94 89.2418 118.939C89.2392 118.934 89.2372 118.929 89.2351 118.926C89.2343 118.923 89.2334 118.922 89.2326 118.921C89.2305 118.916 89.228 118.912 89.2258 118.907C89.2251 118.906 89.2242 118.904 89.2234 118.903C89.2212 118.899 89.2188 118.894 89.2167 118.889C89.2159 118.888 89.215 118.887 89.2146 118.886C89.2121 118.881 89.2096 118.876 89.2075 118.871C89.2067 118.87 89.2058 118.869 89.205 118.868C89.2029 118.863 89.2004 118.858 89.1979 118.854C89.1975 118.853 89.1966 118.851 89.1958 118.849C89.1933 118.845 89.1907 118.84 89.1878 118.835C89.1874 118.834 89.187 118.834 89.1866 118.832C89.1837 118.826 89.1808 118.822 89.1778 118.816C89.1778 118.816 89.1774 118.816 89.1774 118.814C89.1677 118.797 89.1582 118.779 89.1486 118.762C89.1486 118.761 89.1481 118.761 89.1477 118.76C89.1448 118.755 89.1418 118.75 89.1394 118.745C89.1385 118.743 89.1376 118.742 89.1365 118.74C89.1343 118.736 89.1322 118.732 89.1297 118.727C89.1284 118.726 89.1276 118.724 89.1264 118.721C89.1243 118.718 89.1222 118.714 89.1201 118.71C89.1188 118.708 89.1176 118.705 89.1163 118.703C89.1142 118.701 89.1126 118.697 89.1109 118.693C89.1093 118.691 89.108 118.688 89.1063 118.686C89.1047 118.682 89.103 118.68 89.1012 118.676C89.0996 118.674 89.0979 118.672 89.0966 118.669C89.095 118.665 89.0929 118.663 89.0913 118.659C89.09 118.657 89.0883 118.655 89.0867 118.652C89.085 118.649 89.0833 118.646 89.0821 118.644C89.0799 118.64 89.0783 118.638 89.0766 118.634C89.0753 118.632 89.0737 118.629 89.072 118.627C89.0703 118.623 89.0687 118.621 89.0666 118.617C89.0653 118.615 89.0641 118.612 89.0624 118.61C89.0607 118.606 89.0586 118.604 89.0569 118.6C89.0553 118.598 89.054 118.595 89.0528 118.594C89.0507 118.59 89.0486 118.587 89.047 118.583C89.0457 118.582 89.0444 118.58 89.0431 118.577C89.0411 118.574 89.0389 118.57 89.0369 118.566C89.0356 118.565 89.0348 118.564 89.0339 118.561C89.0314 118.558 89.029 118.554 89.0264 118.549C89.026 118.549 89.0251 118.548 89.0248 118.547C89.0218 118.542 89.0194 118.537 89.0164 118.534L89.016 118.532C88.6627 117.953 88.2202 117.461 87.7423 117.163C87.4286 116.967 87.1326 116.873 86.8688 116.873C86.1909 116.873 85.7268 117.488 85.7259 118.54C85.7259 118.555 85.7264 118.572 85.7264 118.589C85.7465 120.086 86.681 121.873 87.8138 122.582Z" fill="#8F8E8D"/>
<path d="M89.8277 121.332L89.8293 121.161C89.8301 121.219 89.8293 121.276 89.8277 121.332ZM89.2911 119.038C89.2899 119.037 89.2886 119.035 89.2878 119.032C89.2886 119.035 89.2899 119.036 89.2911 119.038ZM89.0163 118.534C89.0163 118.534 89.0163 118.532 89.016 118.532L89.0163 118.534Z" fill="#A8A8A8"/>
<path d="M10.1797 64.0811L14.7915 61.0619L18.7058 66.0233L10.1608 71.609L10.1797 64.0811Z" fill="#B0ADAA"/>
<path d="M16.4067 62.7233L12.5749 65.2246L21.3096 82.1185L25.1416 79.6173C25.5928 79.3123 25.4594 74.0328 23.773 70.5647C21.4054 65.6965 17.0553 62.2841 16.4067 62.7233Z" fill="#26231F"/>
<path d="M23.0625 77.6654C23.0625 82.0774 20.3224 83.8671 16.9424 81.6611C13.5621 79.4539 10.822 74.0884 10.822 69.6765C10.822 65.2645 13.5621 63.476 16.9424 65.682C20.3224 67.8892 23.0625 73.2535 23.0625 77.6654Z" fill="#3F3932"/>
<path d="M16.9345 79.6355C14.4958 78.1096 12.4845 74.2615 12.4418 71.0403C12.3992 67.819 14.3415 66.4444 16.7807 67.9691C19.2193 69.495 21.2311 73.3431 21.2732 76.5643C21.316 79.7855 19.3736 81.1602 16.9345 79.6355Z" fill="#A8A8A8"/>
<path d="M16.4628 77.899C14.8701 76.9031 13.5566 74.391 13.5291 72.2866C13.501 70.1847 14.7697 69.2868 16.362 70.2827C17.9543 71.2786 19.2678 73.7907 19.2958 75.8951C19.3235 77.9982 18.0552 78.8961 16.4628 77.899Z" fill="#A8A8A8"/>
<path d="M16.4628 77.899C14.8701 76.9031 13.5566 74.391 13.5291 72.2867C13.501 70.1847 14.7696 69.2869 16.362 70.2828C17.2058 70.8104 17.972 71.7639 18.5092 72.8578C18.9855 73.8271 19.2829 74.9065 19.2958 75.8951L19.2928 76.1456C19.2197 78.0684 17.9903 78.855 16.4628 77.899ZM20.6096 76.4784C20.6134 76.3731 20.6151 76.263 20.6134 76.1517C20.5962 74.8641 20.2095 73.4592 19.5889 72.1959C18.8889 70.7716 17.8917 69.5289 16.7919 68.8416C14.7178 67.5431 13.0653 68.7133 13.1016 71.4529C13.138 74.1925 14.8488 77.4658 16.9232 78.763C18.9128 80.0082 20.5144 78.9832 20.6096 76.4784Z" fill="#BEBEBE"/>
<path d="M19.5889 72.1959L18.5092 72.8578C18.9855 73.8271 19.2829 74.9065 19.2958 75.8951L19.2928 76.1456L20.6096 76.4784C20.6134 76.3731 20.6151 76.263 20.6134 76.1517C20.5962 74.8642 20.2095 73.4593 19.5889 72.1959Z" fill="#E4E4E4"/>
<path d="M9.47006 63.2352L11.5909 61.8412L16.007 60.5573L13.8865 61.9513L9.47006 63.2352Z" fill="#DDDBD8"/>
<path d="M13.8865 61.9514L16.007 60.5574L22.2513 64.633L20.1305 66.0258L13.8865 61.9514Z" fill="#E9E6E3"/>
<path d="M24.5324 73.0647L26.6532 71.6719L26.6337 79.5822L24.5127 80.9762L24.5324 73.0647Z" fill="#DDDBD8"/>
<path d="M20.1305 66.0257L22.2513 64.6329L26.6532 71.6719L24.5324 73.0647L20.1305 66.0257Z" fill="#F1EEEC"/>
<path d="M20.1305 66.0257L24.5324 73.0647L24.5127 80.9762L23.8018 80.5115L23.8206 72.9836L19.8335 66.7566L14.1789 63.0658L10.1797 64.0811L10.1608 71.609L9.44992 71.1455L9.47005 63.2352L13.8865 61.9513L20.1305 66.0257Z" fill="#C9C6C3"/>
<mask id="mask1_0_1" style="mask-type:luminance" maskUnits="userSpaceOnUse" x="24" y="22" width="27" height="41">
<path d="M24.6005 62.3604V39.6665L25.2374 39.2514V61.9453L24.6005 62.3604ZM50.1887 45.6612V22.9674L50.8255 22.5511V45.245L50.1887 45.6612Z" fill="white"/>
</mask>
<g mask="url(#mask1_0_1)">
<path d="M24.6005 62.3604V39.6665L25.2374 39.2514V61.9453L24.6005 62.3604ZM50.1887 45.6612V22.9674L50.8255 22.5511V45.245L50.1887 45.6612Z" fill="url(#paint1_linear_0_1)"/>
</g>
<path d="M46.4818 21.3737L30.4297 31.8506V25.828L46.4818 15.3511V21.3737Z" fill="#454545"/>
<path d="M100.664 119.617L28.3379 72.4137V29.4558L100.664 76.6599V119.617Z" fill="#C9C6C3"/>
<path d="M136.119 96.4774L100.664 119.617V76.6599L136.119 53.5195V96.4774Z" fill="#DDDBD8"/>
<path d="M100.664 76.6599L28.3379 29.4559L63.7937 6.31666L136.119 53.5195L100.664 76.6599Z" fill="#E9E6E3"/>
<path d="M106.06 118.244L110.356 121.048V124.197L106.06 121.393V118.244Z" fill="#26231F"/>
<path d="M111.863 123.213L110.356 124.197V121.048L111.863 120.064V123.213Z" fill="#26231F"/>
<path d="M110.356 121.048L106.06 118.244L107.568 117.261L111.863 120.064L110.356 121.048Z" fill="#26231F"/>
<path d="M124.068 106.492L128.364 109.296V112.444L124.068 109.641V106.492Z" fill="#26231F"/>
<path d="M129.871 111.461L128.364 112.444V109.296L129.871 108.312V111.461Z" fill="#26231F"/>
<path d="M128.364 109.296L124.068 106.492L125.576 105.508L129.871 108.312L128.364 109.296Z" fill="#26231F"/>
<path d="M101.183 132.171L100.664 131.832V124.786L101.183 125.125V132.171Z" fill="#26231F"/>
<path d="M136.119 109.37L101.183 132.171V125.125L136.119 102.323V109.37Z" fill="#38322D"/>
<path d="M101.183 125.125L100.664 124.786L135.6 101.986L136.119 102.323L101.183 125.125Z" fill="#4F463D"/>
<path d="M109.332 125.207L102.397 129.734V127.28L109.332 122.753V125.207Z" fill="#AA0F0F"/>
<path d="M103.243 129.181L102.079 129.941V127.488L103.243 126.727V129.181Z" fill="#E9751C"/>
<path d="M127.998 113.025L134.934 108.498V106.044L127.998 110.571V113.025Z" fill="#AA0F0F"/>
<path d="M134.086 109.051L135.252 108.291V105.837L134.086 106.597V109.051Z" fill="#E9751C"/>
<path d="M125.173 115.07L112.562 123.301V120.007L125.173 111.776V115.07Z" fill="#DDDBD8"/>
<defs>
<linearGradient id="paint0_linear_0_1" x1="22.2213" y1="38.8933" x2="24.5133" y2="38.8933" gradientUnits="userSpaceOnUse">
<stop stop-color="#C9C6C3"/>
<stop offset="0.339901" stop-color="#DDDBD8"/>
<stop offset="1" stop-color="#DDDBD8"/>
</linearGradient>
<linearGradient id="paint1_linear_0_1" x1="22.2213" y1="38.8932" x2="24.5133" y2="38.8932" gradientUnits="userSpaceOnUse">
<stop stop-color="#B5B2AF"/>
<stop offset="0.339901" stop-color="#B9B6B3"/>
<stop offset="1" stop-color="#B9B6B3"/>
</linearGradient>
</defs>
</svg>
